<svg width="59" height="59" viewBox="0 0 59 59" fill="none" xmlns="http://www.w3.org/2000/svg">
<circle cx="29.5" cy="29.5" r="29.5" fill="#ACC811"/>
<path d="M42.4138 37.7188C41.9292 38.8215 41.3305 39.873 40.627 40.857C39.6873 42.1672 38.9155 43.0727 38.324 43.5766C37.4053 44.4 36.4183 44.8237 35.363 44.8476C34.607 44.8476 33.6935 44.6375 32.6295 44.2104C31.562 43.785 30.582 43.5766 29.6843 43.5766C28.7445 43.5766 27.7365 43.785 26.6568 44.2104C25.5788 44.6375 24.7073 44.8613 24.0405 44.8818C23.0308 44.9245 22.021 44.4906 21.0148 43.5766C20.3725 43.03 19.5693 42.0904 18.605 40.7613C17.5725 39.3451 16.7238 37.6965 16.0588 35.8225C15.3465 33.7947 14.9895 31.8335 14.9895 29.9339C14.9895 27.7592 15.4708 25.8817 16.435 24.31C17.1643 23.0757 18.207 22.0455 19.4625 21.3187C20.7006 20.5939 22.1139 20.2035 23.5575 20.1878C24.3625 20.1878 25.4178 20.4304 26.725 20.9088C28.0323 21.3871 28.8723 21.6297 29.238 21.6297C29.5145 21.6297 30.4438 21.3444 32.0258 20.7789C33.5185 20.2545 34.7785 20.0375 35.811 20.1229C38.611 20.3433 40.7128 21.4195 42.111 23.3602C39.6085 24.8413 38.3713 26.9135 38.3958 29.5734C38.4168 31.6456 39.1885 33.3693 40.7005 34.7377C41.369 35.3622 42.1489 35.8618 43.0018 36.212C42.8163 36.7365 42.6203 37.237 42.4138 37.7188ZM35.9965 13.0658C35.9965 14.6887 35.3875 16.2057 34.1783 17.6083C32.7153 19.2756 30.9478 20.2408 29.0315 20.0888C29.0064 19.8847 28.9942 19.6793 28.9948 19.4738C28.9948 17.914 29.6878 16.2467 30.925 14.8818C31.541 14.1916 32.325 13.6159 33.2753 13.158C34.2238 12.707 35.1198 12.4576 35.9633 12.4149C35.986 12.6336 35.9965 12.8505 35.9965 13.0658Z" fill="#181818"/>
</svg>
