<svg width="279" height="331" viewBox="0 0 279 331" fill="none" xmlns="http://www.w3.org/2000/svg">
<g clip-path="url(#clip0_65_293)">
<path d="M140.65 330.52C207.205 330.52 261.16 325.752 261.16 319.87C261.16 313.988 207.205 309.22 140.65 309.22C74.0938 309.22 20.1396 313.988 20.1396 319.87C20.1396 325.752 74.0938 330.52 140.65 330.52Z" fill="#151515"/>
<path d="M38.2303 197.67C36.7755 197.674 35.3765 197.111 34.3303 196.1C28.5703 190.53 -0.179688 161.91 -0.179688 145.44C-0.179688 127.49 40.9803 116.25 53.6003 113.24C54.3229 113.047 55.0768 113.001 55.8175 113.104C56.5582 113.207 57.2708 113.458 57.9131 113.841C58.5554 114.224 59.1144 114.732 59.5573 115.335C60.0001 115.937 60.3177 116.623 60.4914 117.35C60.6651 118.078 60.6913 118.832 60.5685 119.57C60.4457 120.308 60.1763 121.013 59.7764 121.645C59.3764 122.277 58.8539 122.823 58.2397 123.25C57.6255 123.676 56.9321 123.976 56.2003 124.13C32.5603 129.79 11.0003 140 11.0003 145.44C11.0003 154.1 29.1903 175.57 42.1003 188.05C42.9001 188.826 43.4504 189.822 43.6807 190.912C43.911 192.002 43.8109 193.136 43.3933 194.169C42.9756 195.202 42.2593 196.087 41.3361 196.711C40.4128 197.334 39.3245 197.668 38.2103 197.67H38.2303Z" fill="#ACC811"/>
<path d="M94.7303 278.56C93.5078 278.557 92.3198 278.155 91.3468 277.415C90.3739 276.675 89.6693 275.637 89.3403 274.46C80.6303 243.19 95.0503 212.08 99.7903 201.86C100.17 201.04 100.59 200.14 100.79 199.68C101.106 198.405 101.859 197.282 102.919 196.506C103.978 195.73 105.277 195.352 106.587 195.436C107.898 195.521 109.137 196.063 110.088 196.969C111.039 197.874 111.641 199.085 111.79 200.39C111.96 202.17 111.44 203.28 109.92 206.57C105.61 215.87 92.5003 244.16 100.1 271.45C100.329 272.283 100.363 273.157 100.2 274.005C100.036 274.853 99.6792 275.651 99.1569 276.339C98.6346 277.027 97.9609 277.585 97.188 277.97C96.4151 278.355 95.5638 278.557 94.7003 278.56H94.7303Z" fill="#ACC811"/>
<path d="M185.908 280C186.974 279.997 188.011 279.591 188.859 278.843C189.708 278.095 190.323 277.047 190.61 275.857C198.207 244.262 185.629 212.828 181.494 202.502C181.163 201.674 180.797 200.764 180.622 200.299C180.347 199.011 179.69 197.876 178.766 197.093C177.841 196.309 176.709 195.926 175.566 196.012C174.423 196.097 173.342 196.645 172.512 197.56C171.682 198.475 171.157 199.699 171.027 201.017C170.879 202.815 171.332 203.937 172.658 207.261C176.418 216.658 187.853 245.242 181.224 272.816C181.024 273.657 180.995 274.541 181.137 275.397C181.28 276.254 181.591 277.061 182.047 277.756C182.502 278.451 183.09 279.015 183.764 279.404C184.439 279.793 185.181 279.997 185.934 280H185.908Z" fill="#ACC811"/>
<path d="M235.427 192C237.077 192.004 238.664 191.438 239.851 190.423C246.386 184.828 279 156.079 279 139.535C279 121.504 232.307 110.214 217.991 107.19C217.171 106.997 216.316 106.95 215.476 107.054C214.636 107.158 213.827 107.409 213.099 107.794C212.37 108.179 211.736 108.689 211.233 109.294C210.731 109.9 210.371 110.588 210.174 111.319C209.977 112.05 209.947 112.808 210.086 113.549C210.226 114.29 210.531 114.999 210.985 115.634C211.439 116.268 212.031 116.816 212.728 117.245C213.425 117.673 214.211 117.974 215.042 118.129C241.859 123.815 266.317 134.071 266.317 139.535C266.317 148.234 245.682 169.801 231.037 182.337C230.13 183.116 229.505 184.117 229.244 185.212C228.983 186.307 229.096 187.446 229.57 188.484C230.044 189.521 230.856 190.41 231.904 191.036C232.951 191.663 234.186 191.998 235.45 192H235.427Z" fill="#ACC811"/>
<path d="M73.7795 65.5023C102.313 38.9933 154.584 32.6917 192.381 63.2763C176.76 84.8058 170.064 109.053 170.53 135.298C170.995 161.543 178.423 185.665 194.929 207C177.93 221.303 158.312 228.902 135.943 229.423C113.697 229.817 93.8225 222.918 76.0775 209.231C91.8207 187.574 98.5171 163.327 97.9246 136.959C97.4549 110.464 90.1533 86.465 73.7795 65.5023Z" fill="#ACC811"/>
<path d="M203.278 198.601C177.093 167.185 173.907 107.359 200.896 71.2512C234.224 103.665 237.507 161.865 203.278 198.601Z" fill="#ACC811"/>
<path d="M67.3051 201.011C32.4232 165.624 32.5353 108.49 65.2949 73.5303C77.0631 88.5738 83.2452 105.842 85.45 124.43C89.1305 155.744 80.383 184.152 67.3051 201.011Z" fill="#ACC811"/>
<path d="M134.5 43.4544C152.706 43.4544 170.504 48.8821 185.642 59.0511C200.78 69.2202 212.579 83.6738 219.546 100.584C226.514 117.495 228.336 136.103 224.785 154.055C221.233 172.007 212.465 188.497 199.592 201.44C186.718 214.382 170.315 223.196 152.459 226.767C134.602 230.338 116.093 228.506 99.2727 221.501C82.4522 214.496 68.0754 202.635 57.9605 187.416C47.8455 172.197 42.4467 154.304 42.4467 136C42.4467 111.455 52.1451 87.916 69.4085 70.5604C86.6718 53.2047 110.086 43.4544 134.5 43.4544ZM134.5 42C116.007 42 97.9302 47.513 82.5542 57.8419C67.1782 68.1707 55.1941 82.8515 48.1173 100.028C41.0405 117.204 39.1889 136.104 42.7966 154.338C46.4043 172.573 55.3093 189.322 68.3855 202.468C81.4618 215.614 98.1219 224.567 116.259 228.194C134.396 231.821 153.196 229.959 170.281 222.845C187.366 215.73 201.969 203.682 212.242 188.224C222.516 172.765 228 154.591 228 136C227.973 111.078 218.114 87.1841 200.585 69.5615C183.056 51.9389 159.29 42.0267 134.5 42Z" fill="#231F20"/>
<path d="M103.99 130.04C108.011 130.04 111.27 122.303 111.27 112.76C111.27 103.216 108.011 95.48 103.99 95.48C99.9698 95.48 96.7104 103.216 96.7104 112.76C96.7104 122.303 99.9698 130.04 103.99 130.04Z" fill="black"/>
<path d="M164.31 130.04C168.331 130.04 171.59 122.303 171.59 112.76C171.59 103.216 168.331 95.48 164.31 95.48C160.29 95.48 157.03 103.216 157.03 112.76C157.03 122.303 160.29 130.04 164.31 130.04Z" fill="black"/>
<path d="M134.15 196.13C104.85 196.13 81.0005 177.85 81.0005 155.37C81.0005 154.813 81.2217 154.279 81.6156 153.885C82.0094 153.491 82.5435 153.27 83.1005 153.27C83.6574 153.27 84.1916 153.491 84.5854 153.885C84.9792 154.279 85.2005 154.813 85.2005 155.37C85.2005 175.53 107.2 191.93 134.2 191.93C161.2 191.93 183.141 175.53 183.141 155.37C183.141 154.813 183.362 154.279 183.756 153.885C184.149 153.491 184.684 153.27 185.24 153.27C185.797 153.27 186.332 153.491 186.725 153.885C187.119 154.279 187.34 154.813 187.34 155.37C187.29 177.85 163.45 196.13 134.15 196.13Z" fill="black"/>
<path d="M50.3202 176.91C50.3202 176.91 63.5102 193.31 67.0502 200.71C70.5902 208.11 61.5802 226.76 55.4702 231.26C49.3602 235.76 23.6302 237.05 23.3102 231.26C22.9902 225.47 34.2001 224.85 34.2001 224.85C34.2001 224.85 24.0002 221 27.4902 208.43L20.4102 191.09L50.3202 176.91Z" fill="#F5F5F5"/>
<path d="M35.9404 235.86C31.4904 235.86 27.4304 235.35 25.0604 234.23C23.4904 233.49 22.6504 232.51 22.5904 231.3C22.4804 229.4 23.4104 226.79 28.4104 225.2C29.5463 224.85 30.706 224.583 31.8804 224.4C28.9604 222.4 24.2404 217.68 26.7304 208.47L19.7304 191.36C19.6592 191.19 19.6569 190.999 19.7241 190.827C19.7913 190.655 19.9226 190.517 20.0904 190.44L50.0004 176.26C50.1486 176.192 50.3152 176.174 50.4744 176.21C50.6335 176.246 50.7763 176.334 50.8804 176.46C51.4204 177.13 64.1604 193.01 67.6904 200.4C71.3104 207.97 62.4504 227.01 55.8904 231.84C52.5004 234.35 43.6304 235.86 35.9404 235.86ZM21.3404 191.45L28.1604 208.16C28.2155 208.308 28.2155 208.472 28.1604 208.62C24.8504 220.4 34.0403 224.03 34.4303 224.18C34.5892 224.235 34.7238 224.344 34.8109 224.487C34.898 224.631 34.932 224.801 34.907 224.967C34.8821 225.133 34.7998 225.286 34.6744 225.398C34.549 225.51 34.3883 225.574 34.2204 225.58C34.1104 225.58 23.7304 226.22 24.0104 231.22C24.0504 231.887 24.6004 232.457 25.6604 232.93C31.6604 235.76 50.0404 234.35 55.0204 230.68C61.1004 226.2 69.6903 207.95 66.3703 201.02C63.2403 194.46 52.2204 180.48 50.1004 177.81L21.3404 191.45Z" fill="#231F20"/>
<path d="M49.0747 169.112L14.3665 190.099C12.4808 191.239 11.8765 193.692 13.0167 195.578L15.0502 198.941C16.1904 200.827 18.6434 201.431 20.5291 200.291L55.2373 179.304C57.123 178.164 57.7273 175.711 56.5871 173.825L54.5536 170.462C53.4134 168.576 50.9604 167.972 49.0747 169.112Z" fill="#F5F5F5"/>
<path d="M19.0005 201C18.4885 201 17.9783 200.94 17.4805 200.82C15.8559 200.42 14.4567 199.391 13.5905 197.96L13.2105 197.31C12.7811 196.602 12.4957 195.817 12.3704 194.999C12.2451 194.181 12.2824 193.346 12.4803 192.543C12.6782 191.739 13.0327 190.983 13.5235 190.316C14.0143 189.65 14.6317 189.087 15.3405 188.66L47.3405 169.32C48.7707 168.458 50.4842 168.199 52.1055 168.598C53.7269 168.997 55.1239 170.023 55.9905 171.45L56.3805 172.1C56.8098 172.807 57.0953 173.593 57.2206 174.411C57.3459 175.229 57.3085 176.063 57.1106 176.867C56.9128 177.671 56.5583 178.427 56.0675 179.094C55.5767 179.76 54.9592 180.323 54.2505 180.75L22.2505 200.09C21.2699 200.683 20.1463 200.997 19.0005 201ZM50.5805 169.85C49.6974 169.85 48.8318 170.096 48.0805 170.56L16.0805 189.9C15.5333 190.229 15.0565 190.662 14.6772 191.176C14.298 191.689 14.0239 192.273 13.8706 192.892C13.7173 193.512 13.6879 194.156 13.7839 194.787C13.88 195.418 14.0997 196.024 14.4305 196.57L14.8205 197.21C15.4881 198.311 16.5655 199.103 17.8161 199.41C19.0667 199.718 20.3883 199.516 21.4905 198.85L53.4905 179.51C54.5914 178.842 55.3831 177.766 55.6923 176.516C56.0015 175.266 55.8031 173.944 55.1405 172.84L54.7505 172.2C54.4207 171.653 53.9857 171.177 53.4708 170.8C52.9558 170.422 52.3711 170.15 51.7505 170C51.3675 169.908 50.9744 169.864 50.5805 169.87V169.85Z" fill="#231F20"/>
<path d="M221.953 171C221.953 171 206.939 187.337 202.91 194.709C198.88 202.08 209.136 220.658 216.091 225.141C223.046 229.624 252.335 230.909 252.699 225.141C253.063 219.373 240.303 218.756 240.303 218.756C240.303 218.756 251.913 214.921 247.941 202.399L256 185.125L221.953 171Z" fill="#F5F5F5"/>
<path d="M238.689 230C243.699 230 248.269 229.487 250.938 228.361C252.705 227.617 253.651 226.631 253.718 225.415C253.842 223.504 252.795 220.88 247.166 219.281C245.887 218.929 244.582 218.66 243.26 218.476C246.547 216.465 251.861 211.719 249.058 202.458L256.938 185.252C257.018 185.081 257.021 184.889 256.945 184.717C256.869 184.544 256.722 184.404 256.533 184.327L222.86 170.068C222.694 170 222.506 169.982 222.327 170.019C222.148 170.055 221.987 170.143 221.87 170.27C221.262 170.943 206.919 186.912 202.945 194.343C198.87 201.955 208.844 221.101 216.23 225.958C220.046 228.482 230.032 230 238.689 230ZM255.125 185.343L247.448 202.146C247.386 202.295 247.386 202.459 247.448 202.608C251.174 214.454 240.828 218.104 240.389 218.255C240.21 218.31 240.059 218.42 239.961 218.564C239.863 218.709 239.824 218.88 239.852 219.047C239.88 219.214 239.973 219.367 240.114 219.479C240.255 219.592 240.436 219.657 240.625 219.663C240.749 219.663 252.435 220.306 252.12 225.334C252.075 226.005 251.455 226.578 250.262 227.054C243.507 229.899 222.815 228.482 217.209 224.791C210.364 220.286 200.694 201.935 204.431 194.966C207.955 188.37 220.361 174.312 222.748 171.627L255.125 185.343Z" fill="#231F20"/>
<path d="M223.466 163.112L262.599 184.099C264.725 185.239 265.407 187.692 264.121 189.578L261.828 192.941C260.543 194.827 257.777 195.431 255.651 194.291L216.517 173.304C214.391 172.164 213.71 169.711 214.995 167.825L217.288 164.462C218.574 162.576 221.34 161.972 223.466 163.112Z" fill="#F5F5F5"/>
<path d="M257.403 195C257.983 195 258.561 194.939 259.126 194.818C260.967 194.413 262.553 193.371 263.535 191.921L263.966 191.263C264.452 190.547 264.776 189.751 264.918 188.923C265.06 188.094 265.017 187.249 264.793 186.435C264.569 185.621 264.167 184.855 263.611 184.18C263.055 183.506 262.355 182.936 261.551 182.503L225.281 162.917C223.66 162.044 221.718 161.781 219.88 162.185C218.042 162.59 216.459 163.628 215.476 165.074L215.034 165.732C214.548 166.449 214.224 167.244 214.082 168.072C213.94 168.901 213.983 169.746 214.207 170.56C214.431 171.374 214.833 172.14 215.389 172.815C215.945 173.489 216.645 174.06 217.449 174.492L253.719 194.078C254.831 194.679 256.104 194.997 257.403 195ZM221.608 163.453C222.609 163.454 223.59 163.703 224.442 164.172L260.713 183.759C261.333 184.092 261.873 184.531 262.303 185.051C262.733 185.571 263.044 186.162 263.217 186.789C263.391 187.417 263.424 188.069 263.316 188.708C263.207 189.347 262.958 189.961 262.583 190.514L262.141 191.162C261.384 192.277 260.163 193.079 258.745 193.39C257.328 193.701 255.83 193.497 254.581 192.823L218.31 173.236C217.062 172.56 216.165 171.47 215.814 170.204C215.464 168.938 215.689 167.6 216.44 166.482L216.882 165.833C217.256 165.28 217.749 164.798 218.332 164.415C218.916 164.033 219.579 163.757 220.282 163.605C220.716 163.512 221.162 163.468 221.608 163.474V163.453Z" fill="#231F20"/>
<path d="M111.73 268.45C111.73 268.45 72.2203 260.74 71.9003 264.6C71.5803 268.46 73.1803 300 73.1803 300C73.1803 300 35.4203 320.31 41.1803 322.89C46.9403 325.47 111.7 313.51 111.7 313.51L111.73 268.45Z" fill="#F5F5F5"/>
<path d="M171 269.871C171 269.871 206.541 262.256 206.829 266.069C207.116 269.881 205.677 301.032 205.677 301.032C205.677 301.032 239.644 321.092 234.462 323.64C229.281 326.188 171.027 314.376 171.027 314.376L171 269.871Z" fill="#F5F5F5"/>
<path d="M44.4802 323.92C43.2761 323.99 42.0689 323.855 40.9102 323.52C40.626 323.405 40.3807 323.212 40.2034 322.962C40.0261 322.712 39.9243 322.416 39.9102 322.11C39.9102 321.23 39.7902 318.88 56.4902 308.72C63.5602 304.42 70.7202 300.5 72.4902 299.55C72.2902 295.55 70.9202 268.19 71.2302 264.55C71.2442 264.351 71.3027 264.158 71.4014 263.985C71.5 263.812 71.6363 263.663 71.8002 263.55C75.4502 260.79 105.86 266.55 111.92 267.73C112.083 267.764 112.23 267.853 112.336 267.983C112.441 268.112 112.499 268.273 112.5 268.44V313.44C112.499 313.608 112.439 313.771 112.332 313.9C112.224 314.029 112.075 314.118 111.91 314.15C105.93 315.28 58.6902 323.92 44.4802 323.92ZM75.8702 264.2C74.0602 264.2 72.8702 264.36 72.5902 264.74C72.3002 268.42 73.8902 299.62 73.9102 299.93C73.9152 300.067 73.8824 300.203 73.8154 300.323C73.7484 300.443 73.6497 300.542 73.5302 300.61C57.6202 309.16 41.2302 319.52 41.3302 322.06C41.3302 322.06 41.3902 322.14 41.5002 322.2C46.0202 324.2 92.6302 316.25 111.01 312.88V269.05C97.0002 266.34 82.3202 264.2 75.8702 264.2Z" fill="#231F20"/>
<path d="M230.971 324.982C232.032 325.052 233.097 324.917 234.118 324.583C234.369 324.469 234.585 324.275 234.741 324.026C234.898 323.776 234.987 323.481 235 323.176C235 322.298 235.106 319.953 220.382 309.814C214.149 305.523 207.836 301.611 206.275 300.663C206.452 296.672 207.66 269.369 207.386 265.737C207.374 265.538 207.322 265.346 207.235 265.173C207.148 265 207.028 264.852 206.884 264.739C203.666 261.985 176.854 267.733 171.511 268.91C171.367 268.944 171.238 269.033 171.145 269.162C171.052 269.291 171.001 269.452 171 269.619V314.524C171.001 314.692 171.054 314.854 171.149 314.983C171.243 315.112 171.375 315.2 171.52 315.233C176.793 316.36 218.442 324.982 230.971 324.982ZM203.295 265.387C204.891 265.387 205.94 265.547 206.187 265.926C206.443 269.599 205.041 300.733 205.023 301.042C205.019 301.179 205.048 301.315 205.107 301.435C205.166 301.554 205.253 301.653 205.358 301.721C219.386 310.253 233.836 320.591 233.748 323.126C233.748 323.126 233.695 323.206 233.598 323.266C229.613 325.261 188.519 317.328 172.314 313.965V270.227C184.666 267.523 197.609 265.387 203.295 265.387Z" fill="#231F20"/>
</g>
<defs>
<clipPath id="clip0_65_293">
<rect width="279" height="331" fill="white"/>
</clipPath>
</defs>
</svg>
