<svg width="289" height="332" viewBox="0 0 289 332" fill="none" xmlns="http://www.w3.org/2000/svg">
<g clip-path="url(#clip0_65_67)">
<path d="M141.15 331.02C207.706 331.02 261.66 326.252 261.66 320.37C261.66 314.488 207.706 309.72 141.15 309.72C74.5941 309.72 20.6399 314.488 20.6399 320.37C20.6399 326.252 74.5941 331.02 141.15 331.02Z" fill="#151515"/>
<path d="M215.31 271.15C214.448 271.151 213.596 270.953 212.823 270.571C212.049 270.19 211.374 269.635 210.85 268.95C198.78 253.12 167.61 213.44 164.29 209.95C163.238 209.002 162.584 207.69 162.459 206.28C162.333 204.869 162.746 203.463 163.615 202.344C164.483 201.225 165.742 200.476 167.14 200.247C168.538 200.018 169.97 200.326 171.15 201.11C174.46 203.38 219.31 261.58 219.76 262.11C220.658 263.292 221.051 264.783 220.852 266.254C220.654 267.726 219.88 269.058 218.7 269.96C217.734 270.723 216.541 271.142 215.31 271.15ZM164.37 210C164.512 210.124 164.662 210.237 164.82 210.34C164.664 210.235 164.514 210.121 164.37 210Z" fill="#ACC811"/>
<path d="M224.66 121.09C217.032 121.08 209.425 120.282 201.96 118.71C200.513 118.373 199.26 117.476 198.475 116.214C197.69 114.953 197.438 113.432 197.775 111.985C198.112 110.538 199.01 109.285 200.271 108.5C201.532 107.715 203.053 107.463 204.5 107.8C211.354 109.205 218.334 109.905 225.33 109.89C235.08 109.89 248.26 108.09 255.62 100.07C262.98 92.0501 263.74 78.4201 257.74 59.6801C257.49 58.9737 257.385 58.2244 257.43 57.4765C257.475 56.7286 257.67 55.9974 258.003 55.3262C258.335 54.6549 258.8 54.0572 259.368 53.5686C259.935 53.0799 260.596 52.7102 261.309 52.4813C262.023 52.2525 262.775 52.169 263.521 52.2361C264.267 52.3031 264.992 52.5192 265.654 52.8716C266.315 53.2239 266.898 53.7054 267.37 54.2874C267.842 54.8695 268.192 55.5403 268.4 56.2601C275.72 79.1301 274.19 96.4201 263.85 107.67C253.9 118.5 237.9 121.09 224.66 121.09Z" fill="#ACC811"/>
<path d="M38.7301 198.17C37.2753 198.174 35.8763 197.611 34.8301 196.6C29.0701 191.03 0.320068 162.41 0.320068 145.94C0.320068 127.99 41.4801 116.75 54.1001 113.74C54.8227 113.547 55.5765 113.501 56.3173 113.604C57.058 113.707 57.7705 113.958 58.4128 114.341C59.0551 114.724 59.6142 115.232 60.057 115.835C60.4999 116.437 60.8175 117.123 60.9912 117.85C61.1648 118.578 61.1911 119.332 61.0682 120.07C60.9454 120.808 60.6761 121.513 60.2761 122.145C59.8762 122.777 59.3537 123.323 58.7395 123.75C58.1253 124.176 57.4318 124.476 56.7001 124.63C33.0601 130.29 11.5001 140.5 11.5001 145.94C11.5001 154.6 29.6901 176.07 42.6001 188.55C43.3999 189.326 43.9501 190.322 44.1804 191.412C44.4108 192.502 44.3107 193.636 43.893 194.669C43.4754 195.702 42.7591 196.587 41.8358 197.211C40.9125 197.834 39.8242 198.168 38.7101 198.17H38.7301Z" fill="#ACC811"/>
<path d="M95.23 279.06C94.0076 279.057 92.8195 278.655 91.8466 277.915C90.8736 277.175 90.1691 276.137 89.84 274.96C81.13 243.69 95.55 212.58 100.29 202.36C100.67 201.54 101.09 200.64 101.29 200.18C101.605 198.905 102.359 197.782 103.418 197.006C104.478 196.23 105.776 195.852 107.087 195.936C108.397 196.021 109.636 196.563 110.587 197.469C111.539 198.374 112.141 199.585 112.29 200.89C112.46 202.67 111.94 203.78 110.42 207.07C106.11 216.37 93 244.66 100.6 271.95C100.829 272.783 100.863 273.657 100.699 274.505C100.536 275.353 100.179 276.151 99.6567 276.839C99.1344 277.527 98.4606 278.085 97.6877 278.47C96.9148 278.855 96.0636 279.057 95.2 279.06H95.23Z" fill="#ACC811"/>
<path d="M74.279 66.0023C102.813 39.4933 155.083 33.1917 192.88 63.7763C177.26 85.3058 170.564 109.553 171.029 135.798C171.494 162.043 178.923 186.165 195.428 207.5C178.43 221.803 158.812 229.402 136.443 229.923C114.197 230.317 94.322 223.418 76.577 209.731C92.3202 188.074 99.0166 163.827 98.4241 137.459C97.9544 110.964 90.6528 86.965 74.279 66.0023Z" fill="#ACC811"/>
<path d="M203.778 199.101C177.593 167.685 174.407 107.859 201.395 71.7512C234.724 104.165 238.006 162.365 203.778 199.101Z" fill="#ACC811"/>
<path d="M67.8046 201.511C32.9227 166.124 33.0348 108.99 65.7944 74.0303C77.5627 89.0738 83.7447 106.342 85.9495 124.93C89.63 156.244 80.8825 184.652 67.8046 201.511Z" fill="#ACC811"/>
<path d="M134.5 43.9544C152.804 43.9544 170.697 49.3821 185.916 59.5511C201.135 69.7202 212.996 84.1738 220.001 101.084C227.006 117.995 228.838 136.603 225.267 154.555C221.696 172.507 212.882 188.997 199.94 201.94C186.997 214.882 170.507 223.696 152.555 227.267C134.603 230.838 115.995 229.006 99.0844 222.001C82.1739 214.996 67.7202 203.135 57.5512 187.916C47.3821 172.697 41.9544 154.804 41.9544 136.5C41.9544 111.955 51.7047 88.416 69.0604 71.0604C86.4161 53.7047 109.955 43.9544 134.5 43.9544ZM134.5 42.5C115.909 42.5 97.7347 48.013 82.2764 58.3419C66.8182 68.6707 54.77 83.3515 47.6554 100.528C40.5407 117.704 38.6792 136.604 42.3062 154.838C45.9332 173.073 54.8859 189.822 68.032 202.968C81.1781 216.114 97.9273 225.067 116.162 228.694C134.396 232.321 153.296 230.459 170.472 223.345C187.649 216.23 202.329 204.182 212.658 188.724C222.987 173.265 228.5 155.091 228.5 136.5C228.473 111.578 218.561 87.6841 200.939 70.0615C183.316 52.4389 159.422 42.5267 134.5 42.5Z" fill="#181818"/>
<path d="M104.49 130.54C108.511 130.54 111.77 122.803 111.77 113.26C111.77 103.716 108.511 95.98 104.49 95.98C100.469 95.98 97.21 103.716 97.21 113.26C97.21 122.803 100.469 130.54 104.49 130.54Z" fill="black"/>
<path d="M164.81 130.54C168.831 130.54 172.09 122.803 172.09 113.26C172.09 103.716 168.831 95.98 164.81 95.98C160.789 95.98 157.53 103.716 157.53 113.26C157.53 122.803 160.789 130.54 164.81 130.54Z" fill="black"/>
<path d="M134.65 196.63C105.35 196.63 81.5 178.35 81.5 155.87C81.5 155.313 81.7213 154.779 82.1151 154.385C82.5089 153.991 83.0431 153.77 83.6 153.77C84.157 153.77 84.6911 153.991 85.0849 154.385C85.4788 154.779 85.7 155.313 85.7 155.87C85.7 176.03 107.7 192.43 134.7 192.43C161.7 192.43 183.64 176.03 183.64 155.87C183.64 155.313 183.861 154.779 184.255 154.385C184.649 153.991 185.183 153.77 185.74 153.77C186.297 153.77 186.831 153.991 187.225 154.385C187.619 154.779 187.84 155.313 187.84 155.87C187.79 178.35 163.95 196.63 134.65 196.63Z" fill="black"/>
<path d="M245.97 67.6799C245.97 67.6799 221.85 42.34 220.25 36C218.65 29.66 225.38 28.78 229.75 32.35C234.12 35.92 242.15 45.5 242.15 45.5C242.15 45.5 232.81 8.49995 235.02 4.09995C237.23 -0.300049 271.72 -3.03005 275.93 12.92C282.1 36.24 282.93 61.31 282.93 61.31L245.97 67.6799Z" fill="white"/>
<path d="M245.97 68.4C245.774 68.3983 245.587 68.3192 245.45 68.18C244.45 67.18 221.17 42.63 219.55 36.18C218.65 32.62 220.23 31 221.25 30.35C223.59 28.86 227.36 29.47 230.25 31.8C233.32 34.3 238.08 39.61 240.75 42.69C238.48 33.43 232.45 7.68998 234.42 3.78998C235.83 0.979982 246.33 -0.730022 256.01 0.269978C262.68 0.969978 274.23 3.49998 276.67 12.75C282.79 35.88 283.67 61.04 283.72 61.3C283.727 61.4741 283.67 61.6447 283.559 61.7793C283.448 61.9139 283.292 62.0031 283.12 62.03L246.12 68.4H245.97ZM224.25 30.99C223.471 30.9651 222.701 31.1628 222.03 31.56C220.82 32.33 220.44 33.8 220.95 35.82C222.16 40.64 237.86 58.09 246.23 66.9L282.23 60.71C282.05 56.71 280.79 34.04 275.23 13.1C273.01 4.69998 262.11 2.34998 255.81 1.69998C245.96 0.699978 236.57 2.61998 235.66 4.42998C234.13 7.42998 239.11 30.54 242.84 45.29C242.886 45.4506 242.874 45.6221 242.807 45.7751C242.74 45.9281 242.622 46.0531 242.474 46.1287C242.325 46.2043 242.154 46.2258 241.991 46.1896C241.828 46.1533 241.683 46.0616 241.58 45.93C241.5 45.83 233.58 36.38 229.29 32.93C227.872 31.7416 226.099 31.059 224.25 30.99Z" fill="#181818"/>
<path d="M282.858 57.8921L242.886 64.7748C240.715 65.1488 239.257 67.2124 239.631 69.384L240.298 73.257C240.672 75.4287 242.736 76.886 244.907 76.5121L284.879 69.6293C287.051 69.2554 288.508 67.1918 288.134 65.0201L287.467 61.1471C287.093 58.9755 285.03 57.5181 282.858 57.8921Z" fill="white"/>
<path d="M245.5 77.0299C244.016 77.0263 242.58 76.5002 241.444 75.5439C240.309 74.5876 239.546 73.2622 239.29 71.7999L239.16 71.0599C238.879 69.4105 239.263 67.7169 240.228 66.3503C241.194 64.9838 242.662 64.0558 244.31 63.7699L281.15 57.4299C281.966 57.2892 282.801 57.3105 283.608 57.4927C284.415 57.6749 285.179 58.0143 285.855 58.4916C286.531 58.969 287.106 59.5748 287.548 60.2746C287.99 60.9743 288.29 61.7543 288.43 62.5699L288.55 63.3099C288.692 64.1256 288.672 64.9612 288.49 65.769C288.309 66.5768 287.969 67.3408 287.492 68.0172C287.014 68.6935 286.408 69.269 285.707 69.7104C285.007 70.1519 284.226 70.4508 283.41 70.5899L246.57 76.9399C246.217 76.9992 245.859 77.0293 245.5 77.0299ZM282.22 58.7799C281.942 58.7833 281.665 58.8067 281.39 58.8499L244.55 65.1999C243.918 65.3029 243.312 65.5301 242.768 65.8684C242.224 66.2068 241.753 66.6495 241.381 67.1711C241.009 67.6927 240.744 68.2828 240.601 68.9074C240.459 69.5319 240.441 70.1786 240.55 70.8099L240.68 71.5499C240.784 72.1816 241.012 72.7865 241.351 73.3298C241.69 73.8731 242.133 74.3441 242.654 74.7158C243.175 75.0875 243.765 75.3525 244.389 75.4957C245.013 75.6388 245.659 75.6572 246.29 75.5499L283.13 69.2099C283.761 69.1044 284.365 68.8756 284.908 68.5365C285.451 68.1975 285.921 67.7548 286.293 67.2338C286.664 66.7128 286.929 66.1237 287.073 65.5002C287.217 64.8766 287.236 64.2309 287.13 63.5999L287 62.8599C286.816 61.729 286.239 60.6995 285.37 59.953C284.501 59.2064 283.396 58.791 282.25 58.7799H282.22Z" fill="#181818"/>
<path d="M265.03 49.7901C264.926 49.7837 264.824 49.7544 264.733 49.7043C264.641 49.6541 264.562 49.5844 264.5 49.5001C260.85 45.2201 256.88 42.9001 252.71 42.6201C249.061 42.4748 245.484 43.6659 242.65 45.9701C242.579 46.0357 242.496 46.0868 242.405 46.1203C242.315 46.1538 242.218 46.1692 242.122 46.1655C242.025 46.1618 241.93 46.1391 241.842 46.0987C241.755 46.0583 241.676 46.001 241.61 45.9301C241.544 45.8592 241.493 45.776 241.46 45.6854C241.426 45.5947 241.411 45.4984 241.415 45.4018C241.418 45.3052 241.441 45.2103 241.481 45.1225C241.522 45.0347 241.579 44.9557 241.65 44.8901C244.76 42.3168 248.717 40.9942 252.75 41.1801C257.33 41.4801 261.64 43.9701 265.56 48.5601C265.649 48.6659 265.706 48.7949 265.725 48.9319C265.743 49.069 265.723 49.2085 265.665 49.3343C265.607 49.46 265.515 49.5668 265.399 49.6422C265.283 49.7176 265.148 49.7585 265.01 49.7601L265.03 49.7901Z" fill="#181818"/>
<path d="M50.8202 177.41C50.8202 177.41 64.0102 193.81 67.5502 201.21C71.0902 208.61 62.0802 227.26 55.9702 231.76C49.8602 236.26 24.1302 237.55 23.8102 231.76C23.4902 225.97 34.7001 225.35 34.7001 225.35C34.7001 225.35 24.5002 221.5 27.9902 208.93L20.9102 191.59L50.8202 177.41Z" fill="white"/>
<path d="M36.4401 236.36C31.9901 236.36 27.9301 235.85 25.5601 234.73C23.9901 233.99 23.1501 233.01 23.0901 231.8C22.9801 229.9 23.9101 227.29 28.9101 225.7C30.0461 225.35 31.2058 225.083 32.3801 224.9C29.4601 222.9 24.7401 218.18 27.2301 208.97L20.2301 191.86C20.1589 191.69 20.1567 191.499 20.2239 191.327C20.2911 191.155 20.4224 191.017 20.5901 190.94L50.5001 176.76C50.6483 176.692 50.815 176.674 50.9741 176.71C51.1333 176.746 51.276 176.834 51.3801 176.96C51.9201 177.63 64.6601 193.51 68.1901 200.9C71.8101 208.47 62.9501 227.51 56.3901 232.34C53.0001 234.85 44.1301 236.36 36.4401 236.36ZM21.8401 191.95L28.6601 208.66C28.7153 208.808 28.7153 208.972 28.6601 209.12C25.3501 220.9 34.5401 224.53 34.9301 224.68C35.089 224.735 35.2236 224.844 35.3107 224.987C35.3977 225.131 35.4317 225.301 35.4068 225.467C35.3819 225.633 35.2996 225.786 35.1741 225.898C35.0487 226.01 34.8881 226.074 34.7201 226.08C34.6101 226.08 24.2301 226.72 24.5101 231.72C24.5501 232.387 25.1001 232.957 26.1601 233.43C32.1601 236.26 50.5401 234.85 55.5201 231.18C61.6001 226.7 70.1901 208.45 66.8701 201.52C63.7401 194.96 52.7201 180.98 50.6001 178.31L21.8401 191.95Z" fill="#181818"/>
<path d="M49.5742 169.612L14.866 190.599C12.9803 191.739 12.376 194.192 13.5162 196.078L15.5497 199.441C16.6899 201.327 19.1429 201.931 21.0286 200.791L55.7368 179.804C57.6225 178.664 58.2269 176.211 57.0866 174.325L55.0531 170.962C53.9129 169.076 51.4599 168.472 49.5742 169.612Z" fill="white"/>
<path d="M19.5 201.5C18.988 201.5 18.4778 201.44 17.98 201.32C16.3554 200.92 14.9562 199.891 14.09 198.46L13.71 197.81C13.2807 197.102 12.9952 196.317 12.8699 195.499C12.7446 194.681 12.7819 193.846 12.9798 193.043C13.1777 192.239 13.5322 191.483 14.023 190.816C14.5138 190.15 15.1312 189.587 15.84 189.16L47.84 169.82C49.2702 168.958 50.9837 168.699 52.6051 169.098C54.2264 169.497 55.6234 170.523 56.49 171.95L56.88 172.6C57.3093 173.307 57.5948 174.093 57.7201 174.911C57.8454 175.729 57.808 176.563 57.6101 177.367C57.4123 178.171 57.0578 178.927 56.567 179.594C56.0762 180.26 55.4587 180.823 54.75 181.25L22.75 200.59C21.7694 201.183 20.6458 201.497 19.5 201.5ZM51.08 170.35C50.1969 170.35 49.3313 170.596 48.58 171.06L16.58 190.4C16.0328 190.729 15.556 191.162 15.1767 191.676C14.7975 192.189 14.5234 192.773 14.3701 193.392C14.2168 194.012 14.1874 194.656 14.2835 195.287C14.3795 195.918 14.5992 196.524 14.93 197.07L15.32 197.71C15.9876 198.811 17.065 199.603 18.3156 199.91C19.5663 200.218 20.8878 200.016 21.99 199.35L53.99 180.01C55.0909 179.342 55.8826 178.266 56.1918 177.016C56.501 175.766 56.3026 174.444 55.64 173.34L55.25 172.7C54.9202 172.153 54.4852 171.677 53.9703 171.3C53.4553 170.922 52.8706 170.65 52.25 170.5C51.867 170.408 51.4739 170.364 51.08 170.37V170.35Z" fill="#181818"/>
<path d="M112.23 268.95C112.23 268.95 72.7201 261.24 72.4001 265.1C72.0801 268.96 73.6801 300.5 73.6801 300.5C73.6801 300.5 35.9201 320.81 41.6801 323.39C47.4401 325.97 112.2 314.01 112.2 314.01L112.23 268.95Z" fill="white"/>
<path d="M44.9802 324.42C43.7761 324.49 42.5689 324.355 41.4102 324.02C41.126 323.905 40.8807 323.712 40.7034 323.462C40.5261 323.212 40.4243 322.916 40.4102 322.61C40.4102 321.73 40.2902 319.38 56.9902 309.22C64.0602 304.92 71.2202 301 72.9902 300.05C72.7902 296.05 71.4202 268.69 71.7302 265.05C71.7442 264.851 71.8027 264.658 71.9014 264.485C72 264.312 72.1363 264.163 72.3002 264.05C75.9502 261.29 106.36 267.05 112.42 268.23C112.583 268.264 112.73 268.353 112.836 268.483C112.941 268.612 112.999 268.773 113 268.94V313.94C112.999 314.108 112.939 314.271 112.832 314.4C112.724 314.529 112.575 314.618 112.41 314.65C106.43 315.78 59.1902 324.42 44.9802 324.42ZM76.3702 264.7C74.5602 264.7 73.3702 264.86 73.0902 265.24C72.8002 268.92 74.3902 300.12 74.4102 300.43C74.4152 300.567 74.3824 300.703 74.3154 300.823C74.2484 300.943 74.1497 301.042 74.0302 301.11C58.1202 309.66 41.7302 320.02 41.8302 322.56C41.8302 322.56 41.8902 322.64 42.0002 322.7C46.5202 324.7 93.1302 316.75 111.51 313.38V269.55C97.5002 266.84 82.8202 264.7 76.3702 264.7Z" fill="#181818"/>
<path d="M223 238.56C223 238.56 197.5 244.5 191.64 267.5L225.21 313.81L270.78 250.21L237.12 261.71L223 238.56Z" fill="white"/>
<path d="M225.21 314.5C225.095 314.5 224.982 314.473 224.879 314.421C224.776 314.369 224.688 314.293 224.62 314.2L191.06 267.89C190.996 267.805 190.953 267.707 190.932 267.604C190.911 267.5 190.914 267.393 190.94 267.29C196.84 244.16 222.58 237.88 222.84 237.82C222.988 237.784 223.144 237.796 223.285 237.856C223.425 237.915 223.543 238.018 223.62 238.15L237.44 260.81L270.55 249.5C270.695 249.455 270.85 249.455 270.995 249.503C271.139 249.55 271.265 249.641 271.355 249.763C271.446 249.885 271.496 250.032 271.498 250.184C271.501 250.336 271.456 250.485 271.37 250.61L225.79 314.21C225.725 314.303 225.638 314.379 225.537 314.432C225.436 314.484 225.324 314.511 225.21 314.51V314.5ZM192.43 267.32L225.2 312.54L268.88 251.59L237.36 262.4C237.205 262.456 237.036 262.457 236.881 262.402C236.726 262.347 236.595 262.241 236.51 262.1L222.66 239.4C219.11 240.39 197.8 247.11 192.43 267.36V267.32Z" fill="#181818"/>
<path d="M227.07 315.5C214.63 305.74 228.3 290.23 241.35 272.88C250.73 260.41 268.12 245.17 276.54 251.77C286.21 259.39 241.85 327.12 227.07 315.5Z" fill="#D1D3D4"/>
<path d="M231.05 317.59C229.451 317.616 227.891 317.094 226.63 316.11C214.68 306.74 225.75 292.22 237.47 276.85C238.56 275.41 239.67 273.96 240.77 272.49C248.43 262.32 260.87 250.81 270.1 249.6C271.298 249.387 272.527 249.423 273.71 249.705C274.894 249.988 276.007 250.51 276.98 251.24C278.41 252.36 278.91 254.5 278.47 257.61C276.39 272.24 252.01 309.99 235.47 316.61C234.072 317.214 232.572 317.547 231.05 317.59ZM227.5 314.97C229.35 316.42 231.85 316.52 234.94 315.28C249.74 309.33 274.84 272.75 277.02 257.41C277.27 255.65 277.31 253.35 276.02 252.41C275.195 251.8 274.254 251.366 273.255 251.133C272.256 250.901 271.219 250.876 270.21 251.06C261.79 252.17 249.57 263.13 241.86 273.39C240.747 274.857 239.64 276.31 238.54 277.75C226.85 293.15 216.69 306.5 227.5 314.97Z" fill="#181818"/>
</g>
<defs>
<clipPath id="clip0_65_67">
<rect width="288" height="331" fill="white" transform="translate(0.5 0.5)"/>
</clipPath>
</defs>
</svg>
