<svg width="12" height="12" viewBox="0 0 12 12" fill="none" xmlns="http://www.w3.org/2000/svg">
  <!-- Círculo -->
  <path d="M5.89998 0.0999756C2.79998 0.0999756 0.299988 2.59997 0.299988 5.69997C0.299988 8.79997 2.79998 11.3 5.89998 11.3C8.99998 11.3 11.5 8.79997 11.5 5.69997C11.4 2.59997 8.89998 0.0999756 5.89998 0.0999756ZM5.89998 10.8C3.09998 10.8 0.799988 8.49997 0.799988 5.69997C0.799988 2.89997 3.09998 0.599976 5.89998 0.599976C8.69998 0.599976 11 2.89997 11 5.69997C10.9 8.49997 8.69998 10.8 5.89998 10.8Z" fill="white"/>
  
  <!-- Campana centrada (se traslada 3 unidades a la derecha y 2.5 hacia abajo para centrarla en un lienzo de 12x12) -->
  <g transform="translate(3,2.5)">
    <path d="M5.20001 4.79998V2.89998C5.20001 1.59998 4.20001 0.599976 2.90001 0.599976C1.60001 0.599976 0.600021 1.59998 0.600021 2.89998V4.49998L0.200012 5.49998C0.200012 5.59998 0.200018 5.69998 0.300018 5.79998H0.400009H1.80002C1.90002 6.39998 2.50002 6.79997 3.10002 6.69997C3.50002 6.59997 3.90002 6.29998 4.00002 5.79998H5.40001C5.50001 5.79998 5.60002 5.69998 5.60002 5.59998V5.49998L5.20001 4.79998ZM2.90001 6.29998C2.60001 6.29998 2.40002 6.09998 2.30002 5.79998H3.60002C3.50002 6.09998 3.20001 6.29998 2.90001 6.29998ZM0.800018 5.39998L1.10002 4.69997V4.59998V2.89998C1.10002 1.89998 1.90001 1.09998 2.90001 1.09998C3.90001 1.09998 4.70001 1.89998 4.70001 2.89998V4.79998V4.89998L5.00002 5.39998H0.800018Z" fill="white"/>
  </g>
</svg>
