<svg width="12" height="12" viewBox="0 0 12 12" fill="none" xmlns="http://www.w3.org/2000/svg">
<path fill-rule="evenodd" clip-rule="evenodd" d="M3.7 3.09996C4.1 2.69996 4.7 2.39996 5.3 2.39996C5.9 2.39996 6.49999 2.59996 6.89999 3.09996C7.29999 3.49996 7.60001 4.09996 7.60001 4.69996C7.60001 5.29996 7.39999 5.89996 6.89999 6.29996C6.39999 6.69997 5.9 6.99996 5.3 6.99996C4.7 6.99996 4.1 6.79996 3.7 6.29996C3.3 5.89996 3 5.29996 3 4.69996C3 4.09996 3.2 3.49996 3.7 3.09996ZM5.2 2.89996C4.7 2.89996 4.3 3.09996 4 3.39996C3.7 3.69996 3.5 4.19996 3.5 4.59996C3.5 5.09996 3.7 5.49996 4 5.79996C4.3 6.09996 4.8 6.29996 5.2 6.29996C5.7 6.29996 6.09999 6.09996 6.39999 5.79996C6.69999 5.49996 6.89999 4.99996 6.89999 4.59996C6.89999 4.09996 6.69999 3.69996 6.39999 3.39996C6.09999 3.09996 5.7 2.89996 5.2 2.89996Z" fill="white"/>
<path d="M6.89998 6.39996C7.09998 6.19996 7.19999 6.19995 7.29999 6.19995C7.39999 6.19995 7.49999 6.19996 7.59999 6.29996L9.19998 7.89996C9.29998 7.99996 9.29999 8.09995 9.29999 8.19995C9.29999 8.29995 9.29998 8.39995 9.19998 8.49995L9.09999 8.59995C8.99999 8.69995 8.89999 8.69995 8.79999 8.69995C8.69999 8.69995 8.59998 8.69995 8.49998 8.59995L6.89998 6.99995C6.79998 6.89995 6.79999 6.79995 6.79999 6.69995C6.79999 6.69995 6.89998 6.49996 6.89998 6.39996Z" fill="white"/>
<path fill-rule="evenodd" clip-rule="evenodd" d="M6.80002 5.89995L7.20002 6.29995C7.30002 6.39995 7.30002 6.59995 7.20002 6.69995C7.10002 6.79995 6.90002 6.79995 6.80002 6.69995L6.40001 6.29995C6.30001 6.19995 6.30001 5.99995 6.40001 5.89995C6.60001 5.79995 6.80002 5.79995 6.80002 5.89995Z" fill="white"/>
<path d="M6.2 0.0999756C3.1 0.0999756 0.600006 2.59997 0.600006 5.69997C0.600006 8.79997 3.1 11.3 6.2 11.3C9.3 11.3 11.8 8.79997 11.8 5.69997C11.8 2.59997 9.3 0.0999756 6.2 0.0999756ZM6.2 10.7C3.4 10.7 1.10001 8.39998 1.10001 5.59998C1.10001 2.79998 3.4 0.499977 6.2 0.499977C9 0.499977 11.3 2.79998 11.3 5.59998C11.3 8.49998 9 10.7 6.2 10.7Z" fill="white"/>
</svg>
