<svg width="20" height="23" viewBox="0 0 20 23" fill="none" xmlns="http://www.w3.org/2000/svg">
<path d="M4.29999 16.3L5.79999 14.8L5.19998 14.2C3.89998 12.9 3.09998 11.1 3.09998 9.2C3.09998 7.3 3.79998 5.5 5.19998 4.2C6.49998 2.9 8.29998 2.10001 10.2 2.10001C12.1 2.10001 13.9 2.8 15.2 4.2C17 6 17.6 8.5 17.1 10.8L18.8 12.5C20 9.2 19.3 5.3 16.7 2.7C14.9 0.899997 12.6 0 10.1 0C7.59998 0 5.29998 0.999997 3.49998 2.7C1.69998 4.5 0.799988 6.8 0.799988 9.3C0.799988 11.8 1.79998 14.1 3.49998 15.9L4.29999 16.3Z" fill="#ACC816"/>
<path d="M10.3 22.2L6.39999 18.4L7.99999 16.8L10.3 19.2L15.9 13.5L17.4 15L10.3 22.2Z" fill="#ACC816"/>
<path fill-rule="evenodd" clip-rule="evenodd" d="M9.59999 4.90001C9.59999 4.70001 9.7 4.60001 9.8 4.40001C9.9 4.30001 10.1 4.20001 10.3 4.20001C10.5 4.20001 10.6 4.30001 10.8 4.40001C10.9 4.50001 11 4.70001 11 4.90001C11 5.10001 10.9 5.20001 10.8 5.40001C10.7 5.50001 10.5 5.60002 10.3 5.60002C10.1 5.60002 10 5.50001 9.8 5.40001C9.7 5.20001 9.59999 5.00001 9.59999 4.90001ZM6.39999 8.10002C6.39999 7.90002 6.49999 7.80002 6.59999 7.60002C6.69999 7.50002 6.89999 7.40001 7.09999 7.40001C7.29999 7.40001 7.39999 7.50002 7.59999 7.60002C7.69999 7.70002 7.8 7.90002 7.8 8.10002C7.8 8.30002 7.69999 8.40002 7.59999 8.60002C7.49999 8.70002 7.29999 8.80002 7.09999 8.80002C6.89999 8.80002 6.79999 8.70002 6.59999 8.60002C6.49999 8.40002 6.39999 8.20002 6.39999 8.10002ZM13.5 8.70001C13.7 8.70001 13.8 8.60002 14 8.50002C14.1 8.40002 14.2 8.20002 14.2 8.00002C14.2 7.80002 14.1 7.70002 14 7.50002C13.9 7.40002 13.7 7.30002 13.5 7.30002C13.3 7.30002 13.2 7.40002 13 7.50002C12.9 7.60002 12.8 7.80002 12.8 8.00002C12.8 8.20002 12.9 8.30002 13 8.50002C13.1 8.70002 13.3 8.70001 13.5 8.70001ZM10.3 11.9C10.5 11.9 10.6 11.8 10.8 11.7C10.9 11.6 11 11.4 11 11.2C11 11 10.9 10.9 10.8 10.7C10.7 10.6 10.5 10.5 10.3 10.5C10.1 10.5 10 10.6 9.8 10.7C9.7 10.8 9.59999 11 9.59999 11.2C9.59999 11.4 9.7 11.5 9.8 11.7C9.9 11.9 10.1 11.9 10.3 11.9ZM10.7 7.60002C10.6 7.50002 10.4 7.40001 10.2 7.40001C9.99999 7.40001 9.89999 7.50002 9.69999 7.60002C9.59999 7.70002 9.49999 7.90002 9.49999 8.10002C9.49999 8.30002 9.59999 8.40002 9.69999 8.60002C9.79999 8.70002 9.99999 8.80002 10.2 8.80002C10.4 8.80002 10.5 8.70002 10.7 8.60002C10.8 8.50002 10.9 8.30002 10.9 8.10002C10.9 7.90002 10.8 7.70002 10.7 7.60002Z" fill="#ACC816"/>
<path fill-rule="evenodd" clip-rule="evenodd" d="M8 6.49998C8 6.29998 8.1 6.19998 8.2 5.99998C8.3 5.89998 8.5 5.79999 8.7 5.79999C8.9 5.79999 9 5.89998 9.2 5.99998C9.3 6.09998 9.4 6.29998 9.4 6.49998C9.4 6.69998 9.3 6.79998 9.2 6.99998C9.1 7.09998 8.9 7.19998 8.7 7.19998C8.5 7.19998 8.4 7.09998 8.2 6.99998C8.1 6.79998 8 6.59998 8 6.49998Z" fill="#ACC816"/>
<path fill-rule="evenodd" clip-rule="evenodd" d="M11.9 10.3C12.1 10.3 12.2 10.2 12.4 10.1C12.5 10 12.6 9.80001 12.6 9.60001C12.6 9.40001 12.5 9.30001 12.4 9.10001C12.3 8.90001 12.1 8.89999 11.9 8.89999C11.7 8.89999 11.6 9.00001 11.4 9.10001C11.3 9.20001 11.2 9.40001 11.2 9.60001C11.2 9.80001 11.3 9.90001 11.4 10.1C11.5 10.3 11.7 10.3 11.9 10.3Z" fill="#ACC816"/>
<path fill-rule="evenodd" clip-rule="evenodd" d="M9.09999 9.2C8.99999 9.1 8.79999 9 8.59999 9C8.39999 9 8.29999 9.1 8.09999 9.2C7.99999 9.3 7.89999 9.5 7.89999 9.7C7.89999 9.9 7.99999 10 8.09999 10.2C8.19999 10.3 8.39999 10.4 8.59999 10.4C8.79999 10.4 8.89999 10.3 9.09999 10.2C9.19999 10.1 9.3 9.9 9.3 9.7C9.3 9.5 9.19999 9.3 9.09999 9.2Z" fill="#ACC816"/>
<path fill-rule="evenodd" clip-rule="evenodd" d="M12.3 5.99998C12.2 5.89998 12 5.79999 11.8 5.79999C11.6 5.79999 11.5 5.89998 11.3 5.99998C11.2 6.09998 11.1 6.29998 11.1 6.49998C11.1 6.69998 11.2 6.79998 11.3 6.99998C11.4 7.09998 11.6 7.19998 11.8 7.19998C12 7.19998 12.1 7.09998 12.3 6.99998C12.4 6.89998 12.5 6.69998 12.5 6.49998C12.5 6.29998 12.4 6.09998 12.3 5.99998Z" fill="#ACC816"/>
</svg>
