<svg width="19" height="23" viewBox="0 0 19 23" fill="none" xmlns="http://www.w3.org/2000/svg">
<path d="M3.70001 16.5L5.20001 15L4.60002 14.4C3.30002 13.1 2.50002 11.3 2.50002 9.40001C2.50002 7.50001 3.20002 5.70001 4.60002 4.40001C5.90002 3.10001 7.70002 2.30002 9.60002 2.30002C11.5 2.30002 13.3 3.00001 14.6 4.40001C16.4 6.20001 17 8.70002 16.5 11L18.2 12.7C19.4 9.40001 18.7 5.50001 16.1 2.90001C14.3 1.10001 12 0.200012 9.50002 0.200012C7.00002 0.200012 4.70001 1.20001 2.90001 2.90001C1.10001 4.70001 0.200012 7.00002 0.200012 9.50002C0.200012 12 1.20001 14.3 2.90001 16.1L3.70001 16.5Z" fill="white"/>
<path d="M9.60002 22.4L5.80002 18.6L7.30002 17.1L9.60002 19.4L15.3 13.7L16.8 15.2L9.60002 22.4Z" fill="white"/>
<path fill-rule="evenodd" clip-rule="evenodd" d="M8.90001 5.10004C8.90001 4.90004 9.00002 4.80004 9.10002 4.60004C9.20002 4.50004 9.40002 4.40002 9.60002 4.40002C9.80002 4.40002 9.90002 4.50004 10.1 4.60004C10.2 4.70004 10.3 4.90004 10.3 5.10004C10.3 5.30004 10.2 5.40004 10.1 5.60004C10 5.70004 9.80002 5.80003 9.60002 5.80003C9.40002 5.80003 9.30002 5.70004 9.10002 5.60004C9.00002 5.40004 8.90001 5.30004 8.90001 5.10004ZM5.70001 8.30003C5.70001 8.10003 5.80001 8.00003 5.90001 7.80003C6.00001 7.70003 6.20001 7.60004 6.40001 7.60004C6.60001 7.60004 6.70001 7.70003 6.90001 7.80003C7.10001 7.90003 7.10002 8.10003 7.10002 8.30003C7.10002 8.50003 7.00001 8.60003 6.90001 8.80003C6.80001 8.90003 6.60001 9.00003 6.40001 9.00003C6.20001 9.00003 6.10001 8.90003 5.90001 8.80003C5.80001 8.60003 5.70001 8.50003 5.70001 8.30003ZM12.8 9.00003C13 9.00003 13.1 8.90003 13.3 8.80003C13.4 8.70003 13.5 8.50003 13.5 8.30003C13.5 8.10003 13.4 8.00003 13.3 7.80003C13.2 7.70003 13 7.60004 12.8 7.60004C12.6 7.60004 12.5 7.70003 12.3 7.80003C12.2 7.90003 12.1 8.10003 12.1 8.30003C12.1 8.50003 12.2 8.60003 12.3 8.80003C12.4 9.00003 12.6 9.00003 12.8 9.00003ZM9.60002 12.2C9.80002 12.2 9.90002 12.1 10.1 12C10.2 11.9 10.3 11.7 10.3 11.5C10.3 11.3 10.2 11.2 10.1 11C10 10.9 9.80002 10.8 9.60002 10.8C9.40002 10.8 9.30002 10.9 9.10002 11C9.00002 11.1 8.90001 11.3 8.90001 11.5C8.90001 11.7 9.00002 11.8 9.10002 12C9.30002 12.1 9.40002 12.2 9.60002 12.2ZM10.1 7.90002C10 7.80002 9.80002 7.70003 9.60002 7.70003C9.40002 7.70003 9.30002 7.80002 9.10002 7.90002C9.00002 8.00002 8.90001 8.20002 8.90001 8.40002C8.90001 8.60002 9.00002 8.70002 9.10002 8.90002C9.20002 9.00002 9.40002 9.10004 9.60002 9.10004C9.80002 9.10004 9.90002 9.00002 10.1 8.90002C10.2 8.80002 10.3 8.60002 10.3 8.40002C10.2 8.10002 10.2 8.00002 10.1 7.90002Z" fill="white"/>
<path fill-rule="evenodd" clip-rule="evenodd" d="M7.30002 6.7C7.30002 6.5 7.40002 6.4 7.50002 6.2C7.60002 6.1 7.80002 6 8.00002 6C8.20002 6 8.30002 6.1 8.50002 6.2C8.60002 6.3 8.70001 6.5 8.70001 6.7C8.70001 6.9 8.60002 7 8.50002 7.2C8.40002 7.3 8.20002 7.39999 8.00002 7.39999C7.80002 7.39999 7.70002 7.3 7.50002 7.2C7.40002 7 7.30002 6.9 7.30002 6.7Z" fill="white"/>
<path fill-rule="evenodd" clip-rule="evenodd" d="M11.2 10.6C11.4 10.6 11.5 10.5 11.7 10.4C11.8 10.3 11.9 10.1 11.9 9.90001C11.9 9.70001 11.8 9.60001 11.7 9.40001C11.6 9.20001 11.4 9.20001 11.2 9.20001C11 9.20001 10.9 9.30001 10.7 9.40001C10.6 9.50001 10.5 9.70001 10.5 9.90001C10.5 10.1 10.6 10.2 10.7 10.4C10.9 10.5 11 10.6 11.2 10.6Z" fill="white"/>
<path fill-rule="evenodd" clip-rule="evenodd" d="M8.50002 9.50002C8.40002 9.40002 8.20002 9.30002 8.00002 9.30002C7.80002 9.30002 7.70002 9.40002 7.50002 9.50002C7.40002 9.60002 7.30002 9.80002 7.30002 10C7.30002 10.2 7.40002 10.3 7.50002 10.5C7.60002 10.7 7.80002 10.7 8.00002 10.7C8.20002 10.7 8.30002 10.6 8.50002 10.5C8.60002 10.4 8.70001 10.2 8.70001 10C8.60001 9.70002 8.60002 9.60002 8.50002 9.50002Z" fill="white"/>
<path fill-rule="evenodd" clip-rule="evenodd" d="M11.7 6.30003C11.6 6.20003 11.4 6.10004 11.2 6.10004C11 6.10004 10.9 6.20003 10.7 6.30003C10.6 6.40003 10.5 6.60003 10.5 6.80003C10.5 7.00003 10.6 7.10003 10.7 7.30003C10.8 7.50003 11 7.50003 11.2 7.50003C11.4 7.50003 11.5 7.40003 11.7 7.30003C11.8 7.20003 11.9 7.00003 11.9 6.80003C11.8 6.60003 11.8 6.40003 11.7 6.30003Z" fill="white"/>
</svg>
