<?xml version="1.0" standalone="no"?>
<!DOCTYPE svg PUBLIC "-//W3C//DTD SVG 20010904//EN"
 "http://www.w3.org/TR/2001/REC-SVG-20010904/DTD/svg10.dtd">
<svg version="1.0" xmlns="http://www.w3.org/2000/svg"
 width="246.000000pt" height="285.000000pt" viewBox="0 0 246.000000 285.000000"
 preserveAspectRatio="xMidYMid meet">

<g transform="translate(0.000000,285.000000) scale(0.100000,-0.100000)"
fill="#FFFFFF" stroke="none">
<path d="M42 2599 l3 -213 588 -469 c324 -258 594 -466 600 -463 7 3 273 214
592 469 l580 463 3 213 c2 182 0 212 -12 208 -13 -5 -221 -170 -886 -701 -151
-120 -279 -219 -285 -219 -6 0 -134 99 -285 219 -665 531 -873 696 -886 701
-12 4 -14 -26 -12 -208z"/>
<path d="M47 1863 c-4 -3 -7 -200 -7 -438 0 -330 3 -435 13 -447 11 -14 267
-219 932 -746 121 -96 225 -178 230 -183 6 -5 68 38 150 103 723 574 1022 813
1033 826 9 12 12 117 12 448 0 238 -3 435 -8 438 -4 2 -269 -205 -590 -460
-320 -255 -584 -464 -587 -464 -4 0 -1100 869 -1156 917 -9 7 -19 10 -22 6z"/>
</g>
</svg>
