<svg width="26" height="26" viewBox="0 0 26 26" fill="white" xmlns="http://www.w3.org/2000/svg">
<circle cx="13" cy="13" r="13" fill="#ACC811"/>
<path d="M18.2778 7H6.72222C6.53068 7 6.34698 7.07763 6.21153 7.21582C6.07609 7.354 6 7.54142 6 7.73685V9.64528C6 10.0307 6.15383 10.4094 6.42106 10.682L10.3333 14.6735V20.2633C10.3335 20.3888 10.365 20.5122 10.425 20.6218C10.4849 20.7315 10.5713 20.8237 10.676 20.8897C10.7806 20.9557 10.9001 20.9934 11.023 20.9992C11.1459 21.005 11.2682 20.9787 11.3784 20.9227L14.2673 19.449C14.5121 19.3238 14.6667 19.0688 14.6667 18.7896V14.6735L18.5789 10.682C18.8462 10.4094 19 10.0307 19 9.64528V7.73685C19 7.54142 18.9239 7.354 18.7885 7.21582C18.653 7.07763 18.4693 7 18.2778 7ZM13.4338 13.8475C13.3666 13.9158 13.3133 13.997 13.277 14.0864C13.2407 14.1758 13.2221 14.2717 13.2222 14.3685V18.3342L11.7778 19.071V14.3685C11.7779 14.2717 11.7593 14.1758 11.723 14.0864C11.6867 13.997 11.6334 13.9158 11.5662 13.8475L7.44444 9.64528V8.4737H17.5563L17.5577 9.64013L13.4338 13.8475Z" fill="#181818"/>
</svg>
