<svg width="22" height="22" viewBox="0 0 22 22" fill="none" xmlns="http://www.w3.org/2000/svg">
<circle opacity="0.15" cx="11" cy="11" r="11" fill="#C81111"/>
<path d="M15.9118 7.69689C15.9118 9.0011 15.4706 10.74 13.3529 11.4356C13.9706 9.95751 14.0588 8.47941 13.6176 7.08826C13 5.26238 10.9706 3.87123 9.55882 3.0887C9.20588 2.82786 8.58824 3.17565 8.67647 3.69733C8.67647 4.65375 8.41177 6.0449 6.91176 7.523C4.97059 9.43583 4 11.4356 4 13.3484C4 15.8699 5.76471 19 9.29412 19C5.76471 15.5221 8.41176 12.479 8.41176 12.479C9.11765 17.6088 12.8235 19 14.5882 19C16.0882 19 19 17.9566 19 13.4354C19 10.74 17.8529 8.65331 16.8824 7.43605C16.6176 7.00132 16 7.26216 15.9118 7.69689Z" fill="#9C0000"/>
</svg>
