<svg width="59" height="59" viewBox="0 0 59 59" fill="none" xmlns="http://www.w3.org/2000/svg">
<circle cx="29.5" cy="29.5" r="29.5" fill="#ACC811"/>
<path d="M48.5373 25.7713H29.4639V33.6899H40.4402C39.4186 38.722 35.1422 41.6132 29.4639 41.6132C27.875 41.6159 26.3012 41.3044 24.8328 40.6964C23.3644 40.0885 22.0302 39.1962 20.9068 38.0706C19.7834 36.945 18.8929 35.6083 18.2863 34.1371C17.6797 32.666 17.369 31.0894 17.3721 29.4977C17.3693 27.9062 17.6803 26.3298 18.287 24.859C18.8937 23.3881 19.7842 22.0517 20.9076 20.9263C22.031 19.801 23.3651 18.9088 24.8333 18.3011C26.3016 17.6933 27.8752 17.3818 29.4639 17.3845C32.3477 17.3845 34.9543 18.4102 36.9998 20.0876L42.9552 14.1239C39.327 10.9551 34.6749 9.00009 29.4639 9.00009C26.7743 8.99221 24.1098 9.51708 21.6234 10.5445C19.1371 11.5719 16.8781 13.0816 14.9763 14.9868C13.0745 16.892 11.5674 19.155 10.5418 21.6457C9.51618 24.1364 8.99223 26.8057 9.00009 29.5C8.99193 32.1944 9.51567 34.8638 10.5412 37.3546C11.5667 39.8455 13.0737 42.1086 14.9756 44.0139C16.8775 45.9191 19.1366 47.4288 21.6231 48.4561C24.1095 49.4834 26.7743 50.0081 29.4639 49.9999C39.6958 49.9999 49 42.5448 49 29.5C49 28.2885 48.8145 26.9828 48.5373 25.7713Z" fill="#181818"/>
</svg>
