<svg width="36" height="11" viewBox="0 0 36 11" fill="none" xmlns="http://www.w3.org/2000/svg">
<path d="M6.89999 0.900024V2.40002L8.89999 0.900024H6.89999Z" fill="#AEC914"/>
<path d="M4 2.70001C3.3 2.70001 2.8 2.90002 2.3 3.40002V2.80002H2H0.699997H0L0.699997 3.30002V10.6H2.3V7.80002C2.7 8.40002 3.3 8.60001 4 8.60001C4.7 8.60001 5.3 8.30002 5.8 7.80002C6.3 7.20002 6.60001 6.50001 6.60001 5.70001C6.60001 4.90001 6.3 4.20001 5.8 3.60001C5.3 3.00001 4.7 2.70001 4 2.70001ZM4.60001 6.80002C4.30001 7.10002 4.00001 7.20001 3.60001 7.20001C3.20001 7.20001 2.9 7.10002 2.7 6.80002C2.4 6.50002 2.3 6.10001 2.3 5.70001C2.3 5.20001 2.4 4.90002 2.7 4.50002C3 4.20002 3.30001 4.00002 3.60001 4.00002C4.00001 4.00002 4.30001 4.20002 4.60001 4.50002C4.90001 4.80002 5 5.20001 5 5.70001C5 6.20001 4.80001 6.50002 4.60001 6.80002Z" fill="white"/>
<path d="M12.5 2.70001C12.2 2.70001 11.9 2.80002 11.6 3.00002C11.3 3.20002 11 3.40001 10.8 3.60001V2.80002H9.19998H8.79999L9.19998 3.10001V8.50002H10.8V6.00002C10.8 5.40002 10.9 5.00001 11.2 4.70001C11.4 4.40001 11.8 4.20001 12.3 4.20001H12.6L12.5 2.70001Z" fill="white"/>
<path d="M17 3.30005C16.6 3.00005 16 2.80005 15.3 2.80005C14.3 2.80005 13.5 3.10004 12.7 3.60004L13.4 4.60004C13.6 4.40004 13.9 4.30004 14.2 4.20004C14.5 4.10004 14.8 4.00005 15.1 4.00005C15.7 4.00005 16.1 4.30005 16.1 4.90005H14.9C14.2 4.90005 13.6 5.00005 13.2 5.30005C12.8 5.60005 12.6 6.00004 12.6 6.60004C12.6 7.20004 12.8 7.70005 13.2 8.00005C13.6 8.40005 14.1 8.50005 14.7 8.50005C15.3 8.50005 15.8 8.20004 16.2 7.70004V8.40005H17.7V4.80005C17.6 4.20005 17.4 3.60005 17 3.30005ZM16 6.40005C16 6.70005 15.9 6.90004 15.7 7.10004C15.5 7.30004 15.2 7.40005 15 7.40005C14.7 7.40005 14.5 7.30004 14.3 7.20004C14.1 7.10004 14.1 6.90004 14.1 6.70004C14.1 6.30004 14.4 6.10004 15.1 6.10004H16.1V6.40005H16Z" fill="white"/>
<path d="M24.8 2.70001C24.4 2.70001 24.1 2.80002 23.7 3.00002C23.3 3.20002 23 3.50002 22.8 3.80002C22.7 3.50002 22.4 3.20002 22.1 3.00002C21.8 2.80002 21.5 2.70001 21.1 2.70001C20.5 2.70001 20 2.90002 19.6 3.40002V2.80002H18H17.6L18 3.10001V8.50002H19.6V5.40002C19.6 5.00002 19.7 4.60002 20 4.40002C20.2 4.20002 20.5 4.10001 20.8 4.10001C21.1 4.10001 21.3 4.20002 21.5 4.40002C21.6 4.60002 21.7 4.90002 21.7 5.40002V8.50002H23.3V5.40002C23.3 5.00002 23.4 4.60002 23.7 4.40002C23.9 4.20002 24.2 4.10001 24.5 4.10001C25.1 4.10001 25.5 4.50002 25.5 5.40002V8.50002H27.1V5.00002C27.1 4.20002 26.9 3.70002 26.5 3.30002C26 2.90002 25.5 2.70001 24.8 2.70001Z" fill="white"/>
<path d="M34.9 3.30005L35.4 2.80005H35.1H33.4H33.3L32.3 4.40005L31.3 2.80005H29.4L31.3 5.60004L29.3 8.50005H31.1L32.2 7.00005L33.3 8.50005H35.2L33.2 5.60004L34.9 3.30005Z" fill="white"/>
<path d="M27.2 2.80005L27.7 3.10004V8.50005H29.3V4.30005V2.80005H27.7H27.2Z" fill="white"/>
<path d="M6.5 2.80005L6.89999 3.10004V8.50005H8.5V4.30005V2.80005H6.89999H6.5Z" fill="white"/>
<path d="M27.7 0.900024V2.40002L29.7 0.900024H27.7Z" fill="#AEC914"/>
</svg>
