<svg width="59" height="59" viewBox="0 0 59 59" fill="none" xmlns="http://www.w3.org/2000/svg">
<circle cx="29.5" cy="29.5" r="29.5" fill="#ACC811"/>
<path d="M29.4983 21.6024C27.4033 21.6024 25.3941 22.4347 23.9127 23.9161C22.4312 25.3975 21.599 27.4067 21.599 29.5018C21.599 31.5968 22.4312 33.606 23.9127 35.0874C25.3941 36.5688 27.4033 37.4011 29.4983 37.4011C31.5934 37.4011 33.6026 36.5688 35.084 35.0874C36.5654 33.606 37.3977 31.5968 37.3977 29.5018C37.3977 27.4067 36.5654 25.3975 35.084 23.9161C33.6026 22.4347 31.5934 21.6024 29.4983 21.6024ZM29.4983 34.6319C28.1373 34.6319 26.832 34.0912 25.8696 33.1288C24.9072 32.1664 24.3665 30.8611 24.3665 29.5C24.3665 28.139 24.9072 26.8337 25.8696 25.8713C26.832 24.9089 28.1373 24.3682 29.4983 24.3682C30.8594 24.3682 32.1647 24.9089 33.1271 25.8713C34.0895 26.8337 34.6302 28.139 34.6302 29.5C34.6302 30.8611 34.0895 32.1664 33.1271 33.1288C32.1647 34.0912 30.8594 34.6319 29.4983 34.6319Z" fill="#181818"/>
<path d="M37.7102 23.1535C38.7273 23.1535 39.5518 22.329 39.5518 21.3119C39.5518 20.2948 38.7273 19.4703 37.7102 19.4703C36.6932 19.4703 35.8687 20.2948 35.8687 21.3119C35.8687 22.329 36.6932 23.1535 37.7102 23.1535Z" fill="#181818"/>
<path d="M44.0772 19.4396C43.6817 18.4184 43.0774 17.4909 42.3028 16.7166C41.5283 15.9424 40.6006 15.3384 39.5792 14.9433C38.3839 14.4946 37.1212 14.252 35.8447 14.2258C34.1996 14.154 33.6786 14.1335 29.5068 14.1335C25.3351 14.1335 24.8004 14.1335 23.1689 14.2258C21.8935 14.2507 20.6316 14.4933 19.4379 14.9433C18.4162 15.3379 17.4883 15.9418 16.7137 16.7161C15.9391 17.4904 15.3349 18.4181 14.9399 19.4396C14.4911 20.6348 14.2491 21.8976 14.2241 23.174C14.1506 24.8175 14.1284 25.3385 14.1284 29.512C14.1284 33.6837 14.1284 34.215 14.2241 35.8499C14.2497 37.1277 14.4906 38.3885 14.9399 39.586C15.336 40.6072 15.9408 41.5345 16.7156 42.3087C17.4904 43.0829 18.4182 43.687 19.4396 44.0823C20.6311 44.549 21.8934 44.809 23.1723 44.8511C24.8175 44.9228 25.3385 44.945 29.5103 44.945C33.682 44.945 34.2167 44.945 35.8482 44.8511C37.1245 44.8251 38.3871 44.5831 39.5826 44.1353C40.6037 43.7393 41.5311 43.1348 42.3056 42.3603C43.0801 41.5858 43.6846 40.6584 44.0806 39.6373C44.5299 38.4414 44.7708 37.1807 44.7964 35.9028C44.8699 34.2594 44.8921 33.7384 44.8921 29.5649C44.8921 25.3915 44.8921 24.8619 44.7964 23.227C44.7765 21.9326 44.5332 20.6513 44.0772 19.4396ZM41.9965 35.7235C41.9854 36.708 41.8057 37.6833 41.4652 38.6071C41.2086 39.2714 40.8159 39.8747 40.3122 40.3781C39.8085 40.8815 39.205 41.2739 38.5405 41.5301C37.6269 41.8691 36.6619 42.0488 35.6876 42.0614C34.0647 42.1365 33.6068 42.1553 29.4453 42.1553C25.2804 42.1553 24.855 42.1553 23.2014 42.0614C22.2275 42.0495 21.263 41.8697 20.3502 41.5301C19.6834 41.2755 19.0775 40.8838 18.5716 40.3803C18.0657 39.8768 17.6712 39.2727 17.4135 38.6071C17.0778 37.6933 16.8982 36.7294 16.8823 35.7559C16.8088 34.133 16.7917 33.6752 16.7917 29.5137C16.7917 25.3505 16.7917 24.9251 16.8823 23.2697C16.8933 22.2857 17.073 21.311 17.4135 20.3878C17.9346 19.0399 19.0023 17.979 20.3502 17.4631C21.2634 17.1251 22.2277 16.9454 23.2014 16.9318C24.826 16.8583 25.2821 16.8378 29.4453 16.8378C33.6085 16.8378 34.0356 16.8378 35.6876 16.9318C36.662 16.9435 37.6272 17.1232 38.5405 17.4631C39.2049 17.7198 39.8083 18.1126 40.312 18.6163C40.8157 19.1199 41.2084 19.7233 41.4652 20.3878C41.8009 21.3016 41.9806 22.2655 41.9965 23.239C42.0699 24.8636 42.0887 25.3197 42.0887 29.4829C42.0887 33.6444 42.0887 34.092 42.0152 35.7252H41.9965V35.7235Z" fill="#181818"/>
</svg>
