<svg width="29" height="9" viewBox="0 0 29 9" fill="none" xmlns="http://www.w3.org/2000/svg">
<path d="M12.8 0.600006V8.89999H11.6V0.600006H12.8Z" fill="white"/>
<path d="M15.1 1.70001C14.9 1.70001 14.7 1.6 14.6 1.5C14.5 1.4 14.4 1.2 14.4 1C14.4 0.8 14.5 0.6 14.6 0.5C14.7 0.4 14.9 0.299988 15.1 0.299988C15.3 0.299988 15.5 0.4 15.6 0.5C15.8 0.6 15.8 0.8 15.8 1C15.8 1.2 15.7 1.4 15.6 1.5C15.4 1.7 15.3 1.70001 15.1 1.70001ZM14.4 8.89999V2.70001H15.6V8.89999H14.4Z" fill="white"/>
<path d="M22.6 2.70001L20.3 8.89999H19L16.7 2.70001H18L19.6 7.5H19.7L21.3 2.70001H22.6Z" fill="white"/>
<path d="M25.8 9C25.2 9 24.7 8.90001 24.2 8.60001C23.8 8.30001 23.4 8 23.2 7.5C23 7 22.8 6.49999 22.8 5.79999C22.8 5.19999 22.9 4.60001 23.2 4.10001C23.5 3.60001 23.8 3.2 24.2 3C24.6 2.7 25.1 2.60001 25.7 2.60001C26.2 2.60001 26.6 2.69999 27 2.89999C27.4 3.09999 27.8 3.39999 28 3.89999C28.3 4.39999 28.4 5.00001 28.4 5.70001V6.10001H24C24 6.70001 24.2 7.2 24.5 7.5C24.8 7.8 25.2 8 25.8 8C26.1 8 26.4 7.89999 26.7 7.79999C27 7.69999 27.1 7.40001 27.2 7.10001L28.3 7.29999C28.2 7.79999 27.9 8.2 27.4 8.5C27 8.9 26.5 9 25.8 9ZM24 5.29999H27.2C27.2 4.79999 27.1 4.40001 26.8 4.10001C26.5 3.80001 26.1 3.60001 25.7 3.60001C25.4 3.60001 25.1 3.69999 24.8 3.79999C24.6 3.99999 24.4 4.19999 24.2 4.39999C24.1 4.69999 24.1 4.99999 24 5.29999Z" fill="white"/>
<path d="M7.3 0.600006H2C1.2 0.600006 0.5 1.30001 0.5 2.10001V7.5C0.5 8.3 1.2 9 2 9H7.39999C8.19999 9 8.89999 8.3 8.89999 7.5V2.10001C8.79999 1.30001 8.2 0.600006 7.3 0.600006ZM6.7 5L3.39999 6.89999C3.29999 6.99999 3.10001 6.90001 3.10001 6.70001V2.89999C3.10001 2.69999 3.29999 2.60001 3.39999 2.70001L6.7 4.60001C6.9 4.70001 6.9 4.9 6.7 5Z" fill="white"/>
</svg>
