<svg width="20" height="20" viewBox="0 0 20 20" fill="none" xmlns="http://www.w3.org/2000/svg">
<circle cx="10" cy="10" r="10" fill="#ACC811"/>
<path d="M9.77081 3C6.59588 3 4 5.51599 4 8.59107C4 13.1837 9.19175 17.6765 9.4114 17.8563C9.51124 17.9361 9.63103 17.9761 9.77081 17.9761C9.89061 17.9761 10.0304 17.9361 10.1302 17.8563C10.3499 17.6765 15.5416 13.1837 15.5416 8.59107C15.5416 5.49602 12.9457 3 9.77081 3ZM9.77081 16.758C8.63263 15.6797 5.07829 12.0655 5.07829 8.59107C5.07829 6.07509 7.19492 4.03835 9.77081 4.03835C12.3667 4.03835 14.4633 6.07509 14.4633 8.59107C14.4633 12.0655 10.909 15.6797 9.77081 16.758Z" fill="#181818"/>
<path d="M9.65059 10.9273C10.974 10.9273 12.0467 9.8903 12.0467 8.61104C12.0467 7.33179 10.974 6.29474 9.65059 6.29474C8.32722 6.29474 7.25439 7.33179 7.25439 8.61104C7.25439 9.8903 8.32722 10.9273 9.65059 10.9273Z" fill="#181818" stroke="#181818" stroke-width="0.25" stroke-miterlimit="100"/>
</svg>
