<svg width="12" height="15" viewBox="0 0 12 15" fill="none" xmlns="http://www.w3.org/2000/svg">
<path d="M5.77081 0C2.59588 0 0 2.51599 0 5.59107C0 10.1837 5.19175 14.6765 5.4114 14.8563C5.51124 14.9361 5.63103 14.9761 5.77081 14.9761C5.89061 14.9761 6.03038 14.9361 6.13022 14.8563C6.34987 14.6765 11.5416 10.1837 11.5416 5.59107C11.5416 2.49602 8.94573 0 5.77081 0ZM5.77081 13.758C4.63263 12.6797 1.07829 9.06552 1.07829 5.59107C1.07829 3.07509 3.19492 1.03835 5.77081 1.03835C8.36666 1.03835 10.4633 3.07509 10.4633 5.59107C10.4633 9.06552 6.90899 12.6797 5.77081 13.758Z" fill="#C6C6C6"/>
<path d="M5.65083 7.92733C6.9742 7.92733 8.04697 6.89028 8.04697 5.61102C8.04697 4.33177 6.9742 3.29472 5.65083 3.29472C4.32747 3.29472 3.25464 4.33177 3.25464 5.61102C3.25464 6.89028 4.32747 7.92733 5.65083 7.92733Z" stroke="#C6C6C6" stroke-width="0.25" stroke-miterlimit="100"/>
</svg>
