<svg width="195" height="89" viewBox="0 0 195 89" fill="none" xmlns="http://www.w3.org/2000/svg">
<path d="M6.34984 86.0839C7.6877 86.0839 8.78597 85.5447 9.62463 84.4864L11.3618 86.2836C9.98405 87.8411 8.34664 88.6198 6.46964 88.6198C4.59264 88.6198 3.03516 88.0208 1.8171 86.8427C0.59905 85.6646 0 84.167 0 82.3499C0 80.5328 0.618996 79.0352 1.85702 77.8171C3.09504 76.599 4.61261 76 6.40974 76C8.40655 76 10.0838 76.7588 11.4417 78.2963L9.74444 80.2133C8.88581 79.135 7.8075 78.6158 6.52954 78.6158C5.51117 78.6158 4.63256 78.9553 3.89374 79.6142C3.17489 80.2932 2.79552 81.1917 2.79552 82.3299C2.79552 83.4681 3.13496 84.3666 3.83384 85.0655C4.53272 85.7444 5.3714 86.0839 6.34984 86.0839Z" fill="white"/>
<path d="M22.1251 86.8027C20.887 88.0008 19.3695 88.5999 17.5723 88.5999C15.7752 88.5999 14.2576 88.0008 13.0196 86.8027C11.7816 85.6046 11.1626 84.107 11.1626 82.3099C11.1626 80.5128 11.7816 79.0152 13.0196 77.8171C14.2576 76.619 15.7752 76.02 17.5723 76.02C19.3695 76.02 20.887 76.619 22.1251 77.8171C23.3631 79.0152 23.9821 80.5128 23.9821 82.3099C23.9821 84.107 23.3631 85.6046 22.1251 86.8027ZM21.2065 82.3299C21.2065 81.2516 20.8671 80.3131 20.1682 79.5543C19.4693 78.7955 18.6107 78.3962 17.5923 78.3962C16.574 78.3962 15.7153 78.7756 15.0164 79.5543C14.3175 80.3131 13.9781 81.2516 13.9781 82.3299C13.9781 83.4281 14.3175 84.3467 15.0164 85.1054C15.7153 85.8642 16.574 86.2436 17.5923 86.2436C18.6107 86.2436 19.4693 85.8642 20.1682 85.1054C20.8471 84.3467 21.2065 83.4082 21.2065 82.3299Z" fill="white"/>
<path d="M33.4067 76.2995H36.1224V88.5H33.4067L27.5961 80.8522V88.5H24.8804V76.2995H27.4363L33.4267 84.1469V76.2995H33.4067Z" fill="white"/>
<path d="M46.2856 76.2995H49.0013V88.5H46.2856L40.4749 80.8522V88.5H37.7593V76.2995H40.3152L46.3056 84.1469V76.2995H46.2856Z" fill="white"/>
<path d="M59.4051 76.2995V78.7356H53.3348V81.2516H58.806V83.5679H53.3348V86.1038H59.6048V88.52H50.6191V76.3195H59.4051V76.2995Z" fill="white"/>
<path d="M66.2341 86.0839C67.572 86.0839 68.6703 85.5447 69.5089 84.4864L71.2461 86.2836C69.8683 87.8411 68.2309 88.6198 66.3539 88.6198C64.4769 88.6198 62.9194 88.0208 61.7014 86.8427C60.4833 85.6645 59.8843 84.1669 59.8843 82.3498C59.8843 80.5327 60.5033 79.0351 61.7413 77.8171C62.9793 76.599 64.4969 76 66.294 76C68.2908 76 69.9682 76.7588 71.326 78.2963L69.6287 80.2132C68.7701 79.135 67.6918 78.6158 66.4139 78.6158C65.3955 78.6158 64.5169 78.9553 63.7781 79.6142C63.0592 80.2931 62.6798 81.1917 62.6798 82.3299C62.6798 83.4681 63.0193 84.3666 63.7182 85.0655C64.4171 85.7444 65.2557 86.0839 66.2341 86.0839Z" fill="white"/>
<path d="M77.177 78.6557V88.5H74.4613V78.6557H71.0068V76.2995H80.6514V78.6557H77.177Z" fill="white"/>
<path d="M81.23 76.2995H83.9457V88.5H81.23V76.2995Z" fill="white"/>
<path d="M94.0898 76.2995H96.8055V88.5H94.0898L88.2791 80.8522V88.5H85.5635V76.2995H88.1194L94.1098 84.1469V76.2995H94.0898Z" fill="white"/>
<path d="M106.35 82.2899H109.085V86.623C107.867 87.9808 106.19 88.6398 104.053 88.6398C102.256 88.6398 100.759 88.0407 99.5407 86.8626C98.3227 85.6845 97.7236 84.1869 97.7236 82.3698C97.7236 80.5527 98.3426 79.0551 99.5807 77.8371C100.819 76.619 102.316 76.02 104.073 76.02C105.831 76.02 107.348 76.599 108.646 77.7572L107.228 79.7939C106.689 79.3147 106.17 78.9952 105.711 78.8155C105.252 78.6358 104.752 78.5359 104.213 78.5359C103.175 78.5359 102.296 78.8953 101.597 79.5942C100.879 80.2931 100.539 81.2316 100.539 82.3698C100.539 83.508 100.879 84.4465 101.557 85.1454C102.236 85.8442 103.055 86.1837 103.994 86.1837C104.932 86.1837 105.731 86.004 106.35 85.6446V82.2899Z" fill="white"/>
<path d="M114.796 88.5H113.418V84.3666L108.686 76.2796H110.144L114.097 82.6494L118.011 76.2796H119.449L114.796 84.3067V88.5Z" fill="white"/>
<path d="M127.755 77.0583C128.734 77.5975 129.513 78.3562 130.072 79.2947C130.651 80.2332 130.93 81.2716 130.93 82.3898C130.93 83.528 130.651 84.5663 130.072 85.5048C129.493 86.4433 128.734 87.2021 127.755 87.7412C126.777 88.3003 125.719 88.5599 124.541 88.5599C123.362 88.5599 122.284 88.2804 121.306 87.7412C120.327 87.1821 119.549 86.4433 118.989 85.5048C118.41 84.5663 118.131 83.528 118.131 82.3898C118.131 81.2516 118.41 80.2332 118.989 79.2748C119.569 78.3363 120.327 77.5975 121.306 77.0583C122.284 76.5192 123.362 76.2396 124.541 76.2396C125.719 76.2396 126.777 76.5192 127.755 77.0583ZM122.065 78.2164C121.306 78.6557 120.687 79.2348 120.247 79.9736C119.788 80.7125 119.569 81.5112 119.569 82.3898C119.569 83.2684 119.788 84.0871 120.247 84.8259C120.707 85.5647 121.306 86.1438 122.065 86.5831C122.823 87.0024 123.662 87.2221 124.561 87.2221C125.459 87.2221 126.278 87.0024 127.037 86.5831C127.795 86.1637 128.394 85.5647 128.834 84.8259C129.273 84.0871 129.513 83.2684 129.513 82.3898C129.513 81.5112 129.293 80.6925 128.834 79.9736C128.394 79.2348 127.775 78.6558 127.017 78.2364C126.258 77.7971 125.439 77.5974 124.541 77.5974C123.662 77.5775 122.823 77.7771 122.065 78.2164Z" fill="white"/>
<path d="M140.715 87.2221C139.797 88.1206 138.559 88.5799 136.961 88.5799C135.344 88.5799 134.086 88.1206 133.187 87.2221C132.269 86.3235 131.81 85.0655 131.81 83.4681V76.2796H133.207V83.4681C133.207 84.6462 133.547 85.5647 134.206 86.2237C134.865 86.8826 135.783 87.2221 136.941 87.2221C138.099 87.2221 139.018 86.9026 139.677 86.2436C140.336 85.5847 140.675 84.6662 140.675 83.4681V76.2796H142.073V83.4681C142.093 85.0655 141.634 86.3035 140.715 87.2221Z" fill="white"/>
<path d="M149.561 84.6063C149.222 84.6262 148.942 84.6462 148.742 84.6462H145.488V88.5H144.09V76.2796H148.742C150.26 76.2796 151.458 76.639 152.297 77.3578C153.135 78.0767 153.555 79.0951 153.555 80.393C153.555 81.3914 153.315 82.23 152.856 82.909C152.377 83.5879 151.718 84.0671 150.819 84.3666L153.675 88.52H152.097L149.561 84.6063ZM151.318 82.5695C151.917 82.0903 152.217 81.3714 152.217 80.4129C152.217 79.4944 151.917 78.7955 151.318 78.3163C150.719 77.8371 149.861 77.6174 148.742 77.6174H145.488V83.2884H148.742C149.861 83.2884 150.719 83.0487 151.318 82.5695Z" fill="white"/>
<path d="M163.379 77.3778C164.238 78.0966 164.657 79.2149 164.657 80.7324C164.657 82.2301 164.218 83.3483 163.339 84.0472C162.461 84.746 161.123 85.0855 159.306 85.0855H157.688V88.48H154.973V76.2796H159.286C161.163 76.2995 162.521 76.6589 163.379 77.3778ZM161.382 82.1901C161.702 81.8307 161.862 81.2915 161.862 80.5927C161.862 79.8938 161.642 79.3946 161.223 79.095C160.803 78.7955 160.144 78.6557 159.246 78.6557H157.688V82.7492H159.525C160.424 82.7292 161.043 82.5495 161.382 82.1901Z" fill="#ACC811"/>
<path d="M165.396 88.5V76.2995H168.112V86.0838H173.323V88.52H165.396V88.5Z" fill="#ACC811"/>
<path d="M182.608 88.5L181.47 85.8642H176.358L175.22 88.5H172.325L177.596 76.2995H180.232L185.504 88.5H182.608ZM178.914 79.9337L177.377 83.468H180.432L178.914 79.9337Z" fill="#ACC811"/>
<path d="M189.916 88.5H187.201V83.6877L182.967 76.2995H185.923L188.558 80.8323L191.194 76.2995H194.149L189.916 83.6877V88.5Z" fill="#ACC811"/>
<path d="M79.6046 47.1447L83.9377 42.8116L82.1007 40.9745C78.2468 37.1207 76.1102 31.9889 76.1102 26.5376C76.1102 21.0863 78.2268 15.9545 82.1007 12.1007C85.9545 8.24681 91.0863 6.11023 96.5375 6.11023C101.989 6.11023 107.121 8.22685 110.974 12.1007C116.066 17.1925 117.883 24.3211 116.466 30.8906L121.398 35.8227C124.892 26.3978 122.875 15.3555 115.308 7.76758C110.296 2.75559 103.626 0 96.5375 0C89.4489 0 82.7795 2.75559 77.7676 7.76758C72.7556 12.7796 70 19.4489 70 26.5376C70 33.6262 72.7556 40.2956 77.7676 45.3076L79.6046 47.1447Z" fill="#00609C"/>
<path d="M96.5578 64.0975L85.6152 53.155L89.9483 48.8419L96.5578 55.4514L112.792 39.2173L117.125 43.5304L96.5578 64.0975Z" fill="#ACC811"/>
<path fill-rule="evenodd" clip-rule="evenodd" d="M94.3411 16.294C94.3411 15.7349 94.5607 15.1757 94.9801 14.7365C95.4194 14.2972 95.9785 14.0975 96.5376 14.0975C97.0967 14.0975 97.6558 14.3171 98.0951 14.7365C98.5344 15.1757 98.7341 15.7349 98.7341 16.294C98.7341 16.8531 98.5144 17.4122 98.0951 17.8515C97.6558 18.2908 97.0967 18.4904 96.5376 18.4904C95.9785 18.4904 95.4194 18.2708 94.9801 17.8515C94.5607 17.4122 94.3411 16.8531 94.3411 16.294ZM83.4585 27.1566C83.4585 26.5975 83.6782 26.0384 84.0975 25.5991C84.5368 25.1598 85.0959 24.9601 85.655 24.9601C86.2141 24.9601 86.7732 25.1798 87.2125 25.5991C87.6518 26.0384 87.8515 26.5975 87.8515 27.1566C87.8515 27.7157 87.6318 28.2748 87.2125 28.7141C86.7732 29.1534 86.2141 29.3531 85.655 29.3531C85.0959 29.3531 84.5368 29.1334 84.0975 28.7141C83.6782 28.2948 83.4585 27.7157 83.4585 27.1566ZM107.42 29.3731C107.979 29.3731 108.538 29.1534 108.978 28.7341C109.417 28.2948 109.617 27.7357 109.617 27.1766C109.617 26.6175 109.397 26.0584 108.978 25.6191C108.538 25.1798 107.979 24.9801 107.42 24.9801C106.861 24.9801 106.302 25.1997 105.863 25.6191C105.423 26.0584 105.224 26.6175 105.224 27.1766C105.224 27.7357 105.443 28.2948 105.863 28.7341C106.302 29.1534 106.861 29.3531 107.42 29.3731ZM96.5376 40.2357C97.0967 40.2357 97.6558 40.016 98.0951 39.5967C98.5344 39.1574 98.7341 38.5983 98.7341 38.0392C98.7341 37.4801 98.5144 36.921 98.0951 36.4817C97.6558 36.0424 97.0967 35.8427 96.5376 35.8427C95.9785 35.8427 95.4194 36.0624 94.9801 36.4817C94.5408 36.921 94.3411 37.4801 94.3411 38.0392C94.3411 38.5983 94.5607 39.1574 94.9801 39.5967C95.4194 40.016 95.9785 40.2357 96.5376 40.2357ZM98.0951 25.5991C97.6558 25.1598 97.0967 24.9601 96.5376 24.9601C95.9785 24.9601 95.4194 25.1798 94.9801 25.5991C94.5408 26.0384 94.3411 26.5975 94.3411 27.1566C94.3411 27.7157 94.5607 28.2748 94.9801 28.7141C95.4194 29.1534 95.9785 29.3531 96.5376 29.3531C97.0967 29.3531 97.6558 29.1334 98.0951 28.7141C98.5344 28.2748 98.7341 27.7157 98.7341 27.1566C98.754 26.5975 98.5344 26.0384 98.0951 25.5991Z" fill="#ACC811"/>
<path fill-rule="evenodd" clip-rule="evenodd" d="M88.9097 21.7253C88.9097 21.1662 89.1293 20.6071 89.5486 20.1678C89.9879 19.7285 90.547 19.5288 91.1061 19.5288C91.6652 19.5288 92.2243 19.7484 92.6636 20.1678C93.1029 20.6071 93.3026 21.1662 93.3026 21.7253C93.3026 22.2844 93.0829 22.8435 92.6636 23.2828C92.2243 23.7221 91.6652 23.9218 91.1061 23.9218C90.547 23.9218 89.9879 23.7021 89.5486 23.2828C89.1293 22.8435 88.9097 22.2844 88.9097 21.7253Z" fill="#00609C"/>
<path fill-rule="evenodd" clip-rule="evenodd" d="M101.988 34.8044C102.548 34.8044 103.107 34.5847 103.546 34.1654C103.985 33.7261 104.185 33.167 104.185 32.6079C104.185 32.0488 103.965 31.4897 103.546 31.0504C103.107 30.6111 102.548 30.4114 101.988 30.4114C101.429 30.4114 100.87 30.631 100.431 31.0504C99.9917 31.4897 99.792 32.0488 99.792 32.6079C99.792 33.167 100.012 33.7261 100.431 34.1654C100.85 34.5847 101.429 34.8044 101.988 34.8044Z" fill="#00609C"/>
<path fill-rule="evenodd" clip-rule="evenodd" d="M92.6636 31.0504C92.2243 30.6111 91.6652 30.4114 91.1061 30.4114C90.547 30.4114 89.9879 30.631 89.5486 31.0504C89.1093 31.4897 88.9097 32.0488 88.9097 32.6079C88.9097 33.167 89.1293 33.7261 89.5486 34.1654C89.9879 34.6047 90.547 34.8044 91.1061 34.8044C91.6652 34.8044 92.2243 34.5847 92.6636 34.1654C93.1029 33.7261 93.3026 33.167 93.3026 32.6079C93.3026 32.0288 93.1029 31.4697 92.6636 31.0504Z" fill="#00609C"/>
<path fill-rule="evenodd" clip-rule="evenodd" d="M103.546 20.1678C103.107 19.7285 102.548 19.5288 101.988 19.5288C101.429 19.5288 100.87 19.7484 100.431 20.1678C99.9917 20.6071 99.792 21.1662 99.792 21.7253C99.792 22.2844 100.012 22.8435 100.431 23.2828C100.85 23.7221 101.429 23.9218 101.988 23.9218C102.548 23.9218 103.107 23.7021 103.546 23.2828C103.985 22.8435 104.185 22.2844 104.185 21.7253C104.185 21.1662 103.965 20.6071 103.546 20.1678Z" fill="#00609C"/>
<path d="M79.6046 47.1447L83.9378 42.8116L82.1007 40.9745C78.2468 37.1207 76.1102 31.9889 76.1102 26.5376C76.1102 21.0863 78.2268 15.9545 82.1007 12.1007C85.9545 8.24681 91.0864 6.11023 96.5377 6.11023C101.989 6.11023 107.121 8.22685 110.975 12.1007C116.066 17.1925 117.884 24.3211 116.466 30.8906L121.398 35.8227C124.892 26.3978 122.875 15.3555 115.308 7.76758C110.296 2.75559 103.626 0 96.5377 0C89.449 0 82.7796 2.75559 77.7676 7.76758C72.7556 12.7796 70 19.4489 70 26.5376C70 33.6262 72.7556 40.2956 77.7676 45.3076L79.6046 47.1447Z" fill="white"/>
<path d="M96.5378 64.0975L85.6152 53.155L89.9284 48.8419L96.5378 55.4514L112.772 39.2173L117.105 43.5304L96.5378 64.0975Z" fill="#ACC811"/>
<path fill-rule="evenodd" clip-rule="evenodd" d="M94.3416 16.294C94.3416 15.7349 94.5613 15.1757 94.9806 14.7365C95.4199 14.2972 95.9791 14.0975 96.5382 14.0975C97.0973 14.0975 97.6563 14.3171 98.0956 14.7365C98.5349 15.1757 98.7346 15.7349 98.7346 16.294C98.7346 16.8531 98.515 17.4122 98.0956 17.8515C97.6563 18.2908 97.0973 18.4904 96.5382 18.4904C95.9791 18.4904 95.4199 18.2708 94.9806 17.8515C94.5613 17.4122 94.3416 16.8531 94.3416 16.294ZM83.459 27.1566C83.459 26.5975 83.6786 26.0384 84.098 25.5991C84.5373 25.1598 85.0964 24.9601 85.6555 24.9601C86.2147 24.9601 86.7737 25.1798 87.213 25.5991C87.6523 26.0384 87.852 26.5975 87.852 27.1566C87.852 27.7157 87.6323 28.2748 87.213 28.7141C86.7737 29.1534 86.2147 29.3531 85.6555 29.3531C85.0964 29.3531 84.5373 29.1334 84.098 28.7141C83.6786 28.2948 83.459 27.7157 83.459 27.1566ZM107.421 29.3731C107.98 29.3731 108.539 29.1534 108.978 28.7341C109.418 28.2948 109.617 27.7357 109.617 27.1766C109.617 26.6175 109.398 26.0584 108.978 25.6191C108.539 25.1798 107.98 24.9801 107.421 24.9801C106.862 24.9801 106.303 25.1997 105.863 25.6191C105.424 26.0584 105.224 26.6175 105.224 27.1766C105.224 27.7357 105.444 28.2948 105.863 28.7341C106.283 29.1534 106.842 29.3531 107.421 29.3731ZM96.5382 40.2357C97.0973 40.2357 97.6563 40.016 98.0956 39.5967C98.5349 39.1574 98.7346 38.5983 98.7346 38.0392C98.7346 37.4801 98.515 36.921 98.0956 36.4817C97.6563 36.0424 97.0973 35.8427 96.5382 35.8427C95.9791 35.8427 95.4199 36.0624 94.9806 36.4817C94.5413 36.921 94.3416 37.4801 94.3416 38.0392C94.3416 38.5983 94.5613 39.1574 94.9806 39.5967C95.4199 40.016 95.9791 40.2357 96.5382 40.2357ZM98.0956 25.5991C97.6563 25.1598 97.0973 24.9601 96.5382 24.9601C95.9791 24.9601 95.4199 25.1798 94.9806 25.5991C94.5413 26.0384 94.3416 26.5975 94.3416 27.1566C94.3416 27.7157 94.5613 28.2748 94.9806 28.7141C95.4199 29.1534 95.9791 29.3531 96.5382 29.3531C97.0973 29.3531 97.6563 29.1334 98.0956 28.7141C98.5349 28.2748 98.7346 27.7157 98.7346 27.1566C98.7346 26.5975 98.515 26.0384 98.0956 25.5991Z" fill="#ACC811"/>
<path fill-rule="evenodd" clip-rule="evenodd" d="M88.8901 21.7253C88.8901 21.1662 89.1098 20.6071 89.5291 20.1678C89.9684 19.7285 90.5275 19.5288 91.0866 19.5288C91.6457 19.5288 92.2048 19.7485 92.6441 20.1678C93.0834 20.6071 93.2831 21.1662 93.2831 21.7253C93.2831 22.2844 93.0635 22.8435 92.6441 23.2828C92.2048 23.7221 91.6457 23.9218 91.0866 23.9218C90.5275 23.9218 89.9684 23.7021 89.5291 23.2828C89.1098 22.8435 88.8901 22.2844 88.8901 21.7253Z" fill="white"/>
<path fill-rule="evenodd" clip-rule="evenodd" d="M101.969 34.8044C102.528 34.8044 103.088 34.5847 103.527 34.1654C103.966 33.7261 104.166 33.167 104.166 32.6079C104.166 32.0488 103.946 31.4897 103.527 31.0504C103.088 30.6111 102.528 30.4114 101.969 30.4114C101.41 30.4114 100.851 30.6311 100.412 31.0504C99.9726 31.4897 99.7729 32.0488 99.7729 32.6079C99.7729 33.167 99.9926 33.7261 100.412 34.1654C100.851 34.5847 101.41 34.8044 101.969 34.8044Z" fill="white"/>
<path fill-rule="evenodd" clip-rule="evenodd" d="M92.6647 31.0504C92.2254 30.6111 91.6662 30.4114 91.1071 30.4114C90.548 30.4114 89.9889 30.6311 89.5496 31.0504C89.1103 31.4897 88.9106 32.0488 88.9106 32.6079C88.9106 33.167 89.1303 33.7261 89.5496 34.1654C89.9889 34.6047 90.548 34.8044 91.1071 34.8044C91.6662 34.8044 92.2254 34.5847 92.6647 34.1654C93.104 33.7261 93.3036 33.167 93.3036 32.6079C93.3036 32.0288 93.084 31.4697 92.6647 31.0504Z" fill="white"/>
<path fill-rule="evenodd" clip-rule="evenodd" d="M103.527 20.1678C103.088 19.7285 102.528 19.5288 101.969 19.5288C101.41 19.5288 100.851 19.7485 100.412 20.1678C99.9726 20.6071 99.7729 21.1662 99.7729 21.7253C99.7729 22.2844 99.9926 22.8435 100.412 23.2828C100.851 23.7221 101.41 23.9218 101.969 23.9218C102.528 23.9218 103.088 23.7021 103.527 23.2828C103.966 22.8435 104.166 22.2844 104.166 21.7253C104.186 21.1662 103.966 20.6071 103.527 20.1678Z" fill="white"/>
</svg>
