<svg width="22" height="27" viewBox="0 0 22 27" fill="none" xmlns="http://www.w3.org/2000/svg">
<path d="M4.10001 19.5L5.89999 17.7L5.2 17C3.6 15.4 2.8 13.3 2.8 11.1C2.8 8.90001 3.7 6.80001 5.2 5.20001C6.8 3.60001 8.90001 2.79999 11.1 2.79999C13.3 2.79999 15.4 3.70001 17 5.20001C19.1 7.30001 19.8 10.2 19.2 12.9L21.2 14.9C22.6 11 21.8 6.49999 18.7 3.39999C16.7 1.39999 13.9 0.200012 11 0.200012C8.1 0.200012 5.4 1.29999 3.3 3.39999C1.3 5.39999 0.100006 8.20001 0.100006 11.1C0.100006 14 1.2 16.7 3.3 18.8L4.10001 19.5Z" fill="white"/>
<path d="M11.1 26.4L6.60001 22L8.39999 20.2L11.1 22.9L17.7 16.3L19.5 18L11.1 26.4Z" fill="#ACC816"/>
<path fill-rule="evenodd" clip-rule="evenodd" d="M10.2 6.89999C10.2 6.69999 10.3 6.39999 10.5 6.29999C10.7 6.09999 10.9 6 11.1 6C11.3 6 11.6 6.09999 11.7 6.29999C11.9 6.49999 12 6.69999 12 6.89999C12 7.09999 11.9 7.4 11.7 7.5C11.5 7.7 11.3 7.79999 11.1 7.79999C10.9 7.79999 10.6 7.7 10.5 7.5C10.3 7.4 10.2 7.09999 10.2 6.89999ZM5.70001 11.4C5.70001 11.2 5.80002 10.9 6.00002 10.8C6.20002 10.6 6.40002 10.5 6.60002 10.5C6.80002 10.5 7.10001 10.6 7.20001 10.8C7.40001 11 7.50002 11.2 7.50002 11.4C7.50002 11.6 7.40001 11.9 7.20001 12C7.00001 12.2 6.80002 12.3 6.60002 12.3C6.40002 12.3 6.10002 12.2 6.00002 12C5.80002 11.8 5.70001 11.6 5.70001 11.4ZM15.5 12.3C15.7 12.3 16 12.2 16.1 12C16.3 11.8 16.4 11.6 16.4 11.4C16.4 11.2 16.3 10.9 16.1 10.8C15.9 10.6 15.7 10.5 15.5 10.5C15.3 10.5 15 10.6 14.9 10.8C14.7 11 14.6 11.2 14.6 11.4C14.6 11.6 14.7 11.9 14.9 12C15 12.2 15.3 12.3 15.5 12.3ZM11.1 16.7C11.3 16.7 11.6 16.6 11.7 16.4C11.9 16.2 12 16 12 15.8C12 15.6 11.9 15.3 11.7 15.2C11.5 15 11.3 14.9 11.1 14.9C10.9 14.9 10.6 15 10.5 15.2C10.3 15.4 10.2 15.6 10.2 15.8C10.2 16 10.3 16.3 10.5 16.4C10.6 16.6 10.8 16.7 11.1 16.7ZM11.7 10.7C11.5 10.5 11.3 10.4 11.1 10.4C10.9 10.4 10.6 10.5 10.5 10.7C10.3 10.9 10.2 11.1 10.2 11.3C10.2 11.5 10.3 11.8 10.5 11.9C10.7 12.1 10.9 12.2 11.1 12.2C11.3 12.2 11.6 12.1 11.7 11.9C11.9 11.7 12 11.5 12 11.3C12 11.1 11.9 10.9 11.7 10.7Z" fill="#ACC816"/>
<path fill-rule="evenodd" clip-rule="evenodd" d="M7.89999 9.10001C7.89999 8.90001 8 8.6 8.2 8.5C8.4 8.3 8.6 8.20001 8.8 8.20001C9 8.20001 9.29999 8.3 9.39999 8.5C9.59999 8.7 9.7 8.90001 9.7 9.10001C9.7 9.30001 9.59999 9.60001 9.39999 9.70001C9.19999 9.90001 9 10 8.8 10C8.6 10 8.3 9.90001 8.2 9.70001C8 9.60001 7.89999 9.40001 7.89999 9.10001Z" fill="white"/>
<path fill-rule="evenodd" clip-rule="evenodd" d="M13.3 14.5C13.5 14.5 13.8 14.4 13.9 14.2C14.1 14 14.2 13.8 14.2 13.6C14.2 13.4 14.1 13.1 13.9 13C13.7 12.8 13.5 12.7 13.3 12.7C13.1 12.7 12.8 12.8 12.7 13C12.5 13.2 12.4 13.4 12.4 13.6C12.4 13.8 12.5 14.1 12.7 14.2C12.8 14.4 13.1 14.5 13.3 14.5Z" fill="white"/>
<path fill-rule="evenodd" clip-rule="evenodd" d="M9.5 12.9C9.3 12.7 9.09999 12.6 8.89999 12.6C8.69999 12.6 8.4 12.7 8.3 12.9C8.1 13.1 8 13.3 8 13.5C8 13.7 8.1 14 8.3 14.1C8.5 14.2 8.69999 14.4 8.89999 14.4C9.09999 14.4 9.4 14.3 9.5 14.1C9.7 13.9 9.8 13.7 9.8 13.5C9.7 13.4 9.7 13.1 9.5 12.9Z" fill="white"/>
<path fill-rule="evenodd" clip-rule="evenodd" d="M13.9 8.5C13.7 8.3 13.5 8.20001 13.3 8.20001C13.1 8.20001 12.8 8.3 12.7 8.5C12.5 8.7 12.4 8.90001 12.4 9.10001C12.4 9.30001 12.5 9.60001 12.7 9.70001C12.9 9.80001 13.1 10 13.3 10C13.5 10 13.8 9.90001 13.9 9.70001C14.1 9.50001 14.2 9.30001 14.2 9.10001C14.2 8.90001 14.1 8.7 13.9 8.5Z" fill="white"/>
</svg>
