<svg width="24" height="24" viewBox="0 0 24 24" fill="none" xmlns="http://www.w3.org/2000/svg">
<path d="M23.5225 2.43318C23.5225 0.975509 22.524 -0.00292969 21.0863 -0.00292969C17.2325 -0.00292969 13.3786 -0.00292969 9.50483 -0.00292969C8.06713 -0.00292969 7.08875 0.995458 7.06878 2.41319C7.06878 3.0322 7.06878 3.67119 7.06878 4.2902C7.06878 5.12886 7.06878 5.96754 7.06878 6.8062C7.06878 6.926 7.10868 7.04576 6.909 7.06573C6.56955 7.0857 6.32988 7.28538 6.11023 7.50503C4.23323 9.38203 2.35634 11.259 0.479337 13.136C0.159847 13.4555 0 13.815 0 14.2942C0.0199681 16.91 0 19.5259 0 22.1417C0 23.0602 0.439283 23.4995 1.35782 23.4995C4.81229 23.4995 8.28677 23.4995 11.7412 23.4995C15.2357 23.4995 18.7301 23.4995 22.2045 23.4995C23.0232 23.4995 23.4825 23.0403 23.4825 22.2216C23.5224 15.6121 23.5225 9.02265 23.5225 2.43318ZM11.7612 20.8238C11.7612 20.9236 11.7612 21.0235 11.7612 21.1433C10.5831 21.1433 9.42493 21.1433 8.22684 21.1433C8.22684 21.0434 8.22684 20.9436 8.22684 20.8438C8.22684 19.7655 8.22684 18.6872 8.22684 17.6289C8.22684 17.0498 7.84753 16.5905 7.30839 16.4907C6.76925 16.3709 6.21008 16.6504 5.99043 17.1497C5.91055 17.3493 5.89061 17.569 5.89061 17.7687C5.87064 18.787 5.89061 19.8054 5.89061 20.8238C5.89061 20.9236 5.89061 21.0235 5.89061 21.1433C4.71249 21.1433 3.55432 21.1433 2.37621 21.1433C2.37621 21.0434 2.35622 20.9436 2.35622 20.8438C2.35622 18.847 2.35622 16.8302 2.35622 14.8333C2.35622 14.6936 2.41614 14.5338 2.49601 14.4539C3.97365 12.9563 5.47136 11.4587 6.96897 9.96113C6.98893 9.94116 7.00886 9.92117 7.04879 9.88124C7.12867 9.96111 7.18852 10.021 7.24843 10.0809C8.68613 11.5186 10.1239 12.9563 11.5616 14.394C11.7014 14.5338 11.7412 14.6537 11.7412 14.8533C11.7612 16.8302 11.7612 18.827 11.7612 20.8238ZM13.159 10.66C12.4601 10.66 11.921 10.0809 11.921 9.38204C11.941 8.68315 12.5001 8.12406 13.179 8.14402C13.8779 8.14402 14.437 8.74305 14.417 9.44194C14.417 10.1408 13.8579 10.68 13.159 10.66ZM13.2189 6.58652C12.54 6.56655 11.9809 6.00747 11.9809 5.30859C11.9809 4.60971 12.54 4.05059 13.2389 4.05059C13.9178 4.05059 14.4969 4.60971 14.4969 5.30859C14.4969 6.00747 13.9177 6.58652 13.2189 6.58652ZM18.2509 15.073C17.5719 15.073 16.9929 14.4939 16.9929 13.815C16.9929 13.1161 17.552 12.557 18.2509 12.557C18.9497 12.557 19.5089 13.0961 19.5089 13.795C19.5288 14.4939 18.9497 15.073 18.2509 15.073ZM17.0128 9.38204C17.0328 8.68315 17.5919 8.12406 18.2708 8.14402C18.9697 8.14402 19.5288 8.74305 19.5089 9.44194C19.4889 10.1408 18.9298 10.68 18.2309 10.66C17.552 10.66 16.9929 10.0809 17.0128 9.38204ZM18.2708 6.58652C17.5919 6.58652 17.0128 6.0274 17.0128 5.32852C16.9929 4.6496 17.5719 4.07056 18.2509 4.05059C18.9497 4.03062 19.5288 4.60971 19.5288 5.30859C19.5288 6.00747 18.9498 6.58652 18.2708 6.58652Z" fill="white"/>
</svg>
