<svg width="37" height="27" viewBox="0 0 37 27" fill="none" xmlns="http://www.w3.org/2000/svg">
<path fill-rule="evenodd" clip-rule="evenodd" d="M7.71111 6.34595C11.6749 6.34595 14.8897 9.56076 14.8897 13.5245C14.8897 17.4882 11.6749 20.7031 7.71111 20.7031C6.1037 20.7031 4.62415 20.1734 3.43685 19.2966V25.2879C3.43685 26.0916 2.77926 26.7309 1.99382 26.7309C1.19011 26.7309 0.550781 26.0733 0.550781 25.2879V14.0725H1.57368C1.9938 14.0542 3.12631 14.7666 3.47337 15.0223C4.78852 15.9722 6.30462 17.3969 8.33215 17.3969C9.95783 17.3969 11.2547 16.6663 11.7662 15.0041C11.894 14.5657 11.9854 14.0725 11.9854 13.5245C11.9854 12.9583 11.894 12.4651 11.7662 12.045C11.2547 10.3827 9.93957 9.6521 8.33215 9.6521C6.26808 9.6521 4.71544 11.1316 3.40029 12.0815C3.0715 12.3189 1.97553 12.9948 1.57368 12.9765H0.569065C0.843056 9.26853 3.93003 6.34595 7.71111 6.34595Z" fill="#181818"/>
<path fill-rule="evenodd" clip-rule="evenodd" d="M21.5936 17.7988C20.1688 17.7988 18.9998 16.6298 18.9998 15.205V8.06297V7.66112V5.2317V1.76115C18.9998 0.957444 18.3422 0.318115 17.5568 0.318115C16.753 0.318115 16.1138 0.97571 16.1138 1.76115V5.2317V13.1957V15.2232C16.1138 18.2189 18.5797 20.6848 21.5753 20.6848H22.1781C22.8356 20.557 23.3471 19.9542 23.3471 19.2601C23.3471 18.4564 22.6895 17.8171 21.9041 17.8171H21.5936V17.7988Z" fill="#181818"/>
<path d="M36.8638 16.648C36.8638 17.0864 36.7359 17.5431 36.4802 18.0362C36.2245 18.5294 35.8226 19.0043 35.2929 19.4427C34.7632 19.8811 34.0874 20.2465 33.2837 20.5205C32.4799 20.7945 31.5667 20.9223 30.562 20.9223C28.4249 20.9223 26.7444 20.3012 25.5388 19.0409C24.3333 17.7988 23.7305 16.1183 23.7305 14.0177C23.7305 12.5929 24.0045 11.3326 24.5525 10.2366C25.1004 9.14068 25.9042 8.30041 26.9453 7.69763C27.9865 7.09485 29.2286 6.80261 30.6898 6.80261C31.5849 6.80261 32.4069 6.93048 33.1558 7.20447C33.9047 7.46019 34.544 7.80724 35.0555 8.22736C35.5852 8.64748 35.9688 9.08589 36.2427 9.56081C36.5167 10.0357 36.6629 10.4741 36.6629 10.8759C36.6629 11.296 36.5168 11.6431 36.2062 11.9354C35.8957 12.2276 35.5304 12.3737 35.0737 12.3737C34.7815 12.3737 34.544 12.3007 34.3613 12.1546C34.1787 12.0084 33.9595 11.771 33.722 11.4422C33.3019 10.8029 32.8636 10.3097 32.3886 9.99918C31.932 9.67039 31.3474 9.52424 30.635 9.52424C29.6121 9.52424 28.7902 9.9261 28.1509 10.7298C27.5298 11.5335 27.201 12.6295 27.201 14.0177C27.201 14.6753 27.2741 15.2781 27.4385 15.8261C27.6029 16.374 27.8403 16.8307 28.1326 17.2325C28.4431 17.6161 28.8085 17.9084 29.2469 18.1093C29.6852 18.3103 30.1602 18.4016 30.6716 18.4016C31.3657 18.4016 31.9685 18.2372 32.4617 17.9267C32.9548 17.5979 33.3932 17.1047 33.7768 16.4471C33.996 16.0635 34.2152 15.753 34.4709 15.5338C34.7084 15.3146 35.0189 15.205 35.366 15.205C35.7861 15.205 36.1332 15.3694 36.4254 15.6799C36.7177 15.9356 36.8638 16.2827 36.8638 16.648Z" fill="#181818"/>
</svg>
