<svg width="22" height="23" viewBox="0 0 22 23" fill="none" xmlns="http://www.w3.org/2000/svg">
<path d="M0.230957 21.0148C0.250925 20.8949 0.27083 20.7951 0.290798 20.6753C0.530415 19.3773 1.04962 18.1992 1.82838 17.1609C2.5672 16.1625 3.50569 15.3638 4.564 14.7447C5.60234 14.1257 6.72052 13.7064 7.89863 13.4268C8.61748 13.2671 9.33639 13.1673 10.0752 13.1273C11.2334 13.0674 12.3515 13.1672 13.4897 13.4069C14.6478 13.6664 15.7661 14.0858 16.8044 14.6848C17.5832 15.1241 18.2821 15.6633 18.9011 16.3023C20.0992 17.5403 20.878 18.998 21.1974 20.6953C21.2174 20.8151 21.2373 20.9149 21.2573 21.0347C21.2573 21.0946 21.2573 21.1745 21.2573 21.2344C21.2573 21.2543 21.2573 21.2543 21.2573 21.2743C21.2373 21.454 21.2174 21.6337 21.1375 21.7935C20.9178 22.3526 20.5185 22.692 19.9195 22.7919C19.8396 22.8119 19.7597 22.8118 19.6599 22.8318C13.7094 22.8318 7.77887 22.8318 1.82838 22.8318C1.80841 22.8318 1.7684 22.8318 1.74843 22.8119C1.52878 22.8119 1.32912 22.7519 1.14941 22.6521C0.650209 22.3925 0.370651 21.9931 0.27081 21.454C0.250842 21.3741 0.250925 21.3142 0.230957 21.2344C0.230957 21.1345 0.230957 21.0747 0.230957 21.0148Z" fill="white"/>
<path d="M10.7933 0.168091C10.8333 0.168091 10.8932 0.168049 10.9331 0.188017C11.8317 0.227954 12.6704 0.447634 13.4491 0.9069C14.4076 1.46601 15.0865 2.26474 15.5258 3.28311C15.8053 3.92209 15.9452 4.60098 15.9651 5.31983C15.9851 7.03709 15.4259 8.53469 14.2877 9.81265C13.7087 10.4516 13.0297 10.9308 12.231 11.2304C11.7517 11.4101 11.2725 11.49 10.7733 11.5099C9.95466 11.5099 9.19594 11.2903 8.47709 10.8909C7.55856 10.3718 6.87965 9.63292 6.36048 8.73436C5.92118 7.97557 5.66153 7.17686 5.54172 6.31824C5.44188 5.59938 5.46182 4.86057 5.64153 4.14172C5.86118 3.22319 6.30055 2.40451 6.9595 1.7256C7.79816 0.866971 8.81646 0.387696 10.0146 0.247919C10.2342 0.227951 10.4339 0.208005 10.6535 0.208005C10.6735 0.208005 10.6736 0.208005 10.6935 0.208005C10.7135 0.168069 10.7534 0.168091 10.7933 0.168091Z" fill="white"/>
<path d="M0.230957 21.2145C0.250925 21.2943 0.250842 21.3543 0.27081 21.4342C0.370651 21.9733 0.650209 22.3926 1.14941 22.6323C1.32912 22.7321 1.54875 22.792 1.74843 22.792C1.7684 22.792 1.80841 22.792 1.82838 22.812" fill="#ACC811"/>
</svg>
