<svg width="25" height="25" viewBox="0 0 25 25" fill="none" xmlns="http://www.w3.org/2000/svg">
<path d="M12.3899 24.3411C18.9295 24.3411 24.2309 19.0396 24.2309 12.5C24.2309 5.96035 18.9295 0.658936 12.3899 0.658936C5.85024 0.658936 0.548828 5.96035 0.548828 12.5C0.548828 19.0396 5.85024 24.3411 12.3899 24.3411Z" fill="#ACC811"/>
<path d="M9.79384 13.5982C8.39608 13.5982 6.97837 13.5982 5.58061 13.5982C5.06144 13.5982 4.8418 13.3986 4.8418 12.8794C4.8418 10.9625 4.8418 9.04552 4.8418 7.12858C4.8418 6.60941 5.04145 6.38977 5.56062 6.38977C8.39609 6.38977 11.2516 6.38977 14.087 6.38977C14.6062 6.38977 14.7859 6.58942 14.7859 7.10859C14.7859 9.0455 14.7859 10.9625 14.7859 12.8994C14.7859 13.4186 14.5862 13.6182 14.0471 13.6182C12.6493 13.5982 11.2315 13.5982 9.79384 13.5982Z" fill="#181818"/>
<path d="M19.9573 10.024C19.9573 10.9825 19.9573 11.921 19.9573 12.8794C19.9573 13.5184 19.518 13.778 18.9589 13.4585C17.8607 12.8395 16.7824 12.2005 15.6841 11.5815C15.4046 11.4218 15.2649 11.2021 15.2649 10.8626C15.2649 10.2636 15.2649 9.66456 15.2649 9.06552C15.2649 8.74603 15.3846 8.54636 15.6642 8.38661C16.7624 7.7676 17.8407 7.14859 18.939 6.50961C19.518 6.17015 19.9573 6.42971 19.9573 7.10863C19.9573 8.08706 19.9573 9.06554 19.9573 10.024Z" fill="#181818"/>
<path d="M19.8579 17.6718H4.96167V18.6302H19.8579V17.6718Z" fill="#181818"/>
<path d="M12.4897 15.615H4.96167V16.5735H12.4897V15.615Z" fill="#181818"/>
</svg>
