<svg width="24" height="24" viewBox="0 0 24 24" fill="none" xmlns="http://www.w3.org/2000/svg">
<path d="M11.8411 23.6821C18.3807 23.6821 23.6821 18.3807 23.6821 11.8411C23.6821 5.30142 18.3807 0 11.8411 0C5.30142 0 0 5.30142 0 11.8411C0 18.3807 5.30142 23.6821 11.8411 23.6821Z" fill="white"/>
<path d="M9.22494 12.9392C7.82717 12.9392 6.40946 12.9392 5.0117 12.9392C4.49253 12.9392 4.27283 12.7395 4.27283 12.2203C4.27283 10.3034 4.27283 8.38646 4.27283 6.46952C4.27283 5.95035 4.47254 5.73071 4.99171 5.73071C7.82718 5.73071 10.6826 5.73071 13.5181 5.73071C14.0372 5.73071 14.217 5.93036 14.217 6.44953C14.217 8.38644 14.217 10.3034 14.217 12.2403C14.217 12.7595 14.0173 12.9592 13.4781 12.9592C12.0804 12.9592 10.6626 12.9591 9.22494 12.9392Z" fill="#181818"/>
<path d="M19.3886 9.36495C19.3886 10.3234 19.3886 11.2619 19.3886 12.2204C19.3886 12.8594 18.9493 13.119 18.3902 12.7995C17.2919 12.1805 16.2137 11.5415 15.1154 10.9225C14.8359 10.7627 14.696 10.543 14.696 10.2036C14.696 9.60454 14.696 9.00551 14.696 8.40646C14.696 8.08698 14.8159 7.8873 15.0954 7.72756C16.1937 7.10855 17.272 6.48953 18.3702 5.85055C18.9493 5.51109 19.3886 5.77066 19.3886 6.44957C19.3886 7.44797 19.3886 8.40649 19.3886 9.36495Z" fill="#181818"/>
<path d="M19.289 17.0127H4.39282V17.9712H19.289V17.0127Z" fill="#181818"/>
<path d="M11.9208 14.9561H4.39282V15.9145H11.9208V14.9561Z" fill="#181818"/>
</svg>
