<svg width="22" height="23" viewBox="0 0 22 23" fill="none" xmlns="http://www.w3.org/2000/svg">
<path d="M0.410889 10.4914C0.650506 6.09845 4.40449 1.48583 9.87574 1.00659C10.2951 3.98184 11.6529 6.47786 13.7496 8.57451C15.8462 10.6712 18.3422 12.0489 21.3574 12.4882C21.0978 14.9843 20.0994 17.1408 18.3222 18.9379C16.545 20.7151 14.3885 21.7135 11.8726 21.993C11.4532 18.9978 10.0954 16.5018 7.97875 14.4052C5.8821 12.2885 3.38613 10.9108 0.410889 10.4914Z" fill="white"/>
<path d="M21.3979 11.1506C16.8052 10.6514 11.8531 6.03874 11.2141 0.986816C16.4657 0.986816 21.2981 5.47963 21.3979 11.1506Z" fill="white"/>
<path d="M10.5351 22.0132C4.92412 21.8735 0.45121 17.2209 0.371338 11.8096C2.50792 12.1091 4.36497 13.0276 6.00235 14.3655C8.75795 16.6219 10.2756 19.6171 10.5351 22.0132Z" fill="white"/>
</svg>
