<svg width="54" height="65" viewBox="0 0 54 65" fill="none" xmlns="http://www.w3.org/2000/svg">
<path d="M9.92447 47.1447L14.2576 42.8116L12.4205 40.9745C8.56664 37.1207 6.43005 31.9889 6.43005 26.5376C6.43005 21.0863 8.54667 15.9545 12.4205 12.1007C16.2743 8.24681 21.4062 6.11023 26.8575 6.11023C32.3088 6.11023 37.4405 8.22685 41.2944 12.1007C46.3862 17.1925 48.2033 24.3211 46.7856 30.8906L51.7177 35.8227C55.2121 26.3978 53.1953 15.3555 45.6274 7.76758C40.6154 2.75559 33.9462 0 26.8575 0C19.7688 0 13.0994 2.75559 8.08744 7.76758C3.07545 12.7796 0.319824 19.4489 0.319824 26.5376C0.319824 33.6262 3.07545 40.2956 8.08744 45.3076L9.92447 47.1447Z" fill="white"/>
<path d="M26.8579 64.0976L15.9353 53.1551L20.2485 48.8419L26.8579 55.4514L43.092 39.2173L47.425 43.5304L26.8579 64.0976Z" fill="#ACC811"/>
<path fill-rule="evenodd" clip-rule="evenodd" d="M24.6614 16.294C24.6614 15.7349 24.8811 15.1757 25.3004 14.7365C25.7397 14.2972 26.2989 14.0975 26.858 14.0975C27.4171 14.0975 27.9762 14.3171 28.4155 14.7365C28.8547 15.1757 29.0544 15.7349 29.0544 16.294C29.0544 16.8531 28.8348 17.4122 28.4155 17.8515C27.9762 18.2908 27.4171 18.4904 26.858 18.4904C26.2989 18.4904 25.7397 18.2708 25.3004 17.8515C24.8811 17.4122 24.6614 16.8531 24.6614 16.294ZM13.7788 27.1566C13.7788 26.5975 13.9985 26.0384 14.4178 25.5991C14.8571 25.1598 15.4163 24.9601 15.9754 24.9601C16.5345 24.9601 17.0935 25.1798 17.5328 25.5991C17.9721 26.0384 18.1718 26.5975 18.1718 27.1566C18.1718 27.7157 17.9521 28.2748 17.5328 28.7141C17.0935 29.1534 16.5345 29.3531 15.9754 29.3531C15.4163 29.3531 14.8571 29.1334 14.4178 28.7141C13.9985 28.2948 13.7788 27.7157 13.7788 27.1566ZM37.7405 29.3731C38.2996 29.3731 38.8588 29.1534 39.2981 28.7341C39.7374 28.2948 39.9371 27.7357 39.9371 27.1766C39.9371 26.6175 39.7174 26.0584 39.2981 25.6191C38.8588 25.1798 38.2996 24.9801 37.7405 24.9801C37.1814 24.9801 36.6224 25.1997 36.1831 25.6191C35.7438 26.0584 35.5441 26.6175 35.5441 27.1766C35.5441 27.7357 35.7637 28.2948 36.1831 28.7341C36.6024 29.1534 37.1614 29.3531 37.7405 29.3731ZM26.858 40.2357C27.4171 40.2357 27.9762 40.016 28.4155 39.5967C28.8547 39.1574 29.0544 38.5983 29.0544 38.0392C29.0544 37.4801 28.8348 36.921 28.4155 36.4817C27.9762 36.0424 27.4171 35.8427 26.858 35.8427C26.2989 35.8427 25.7397 36.0624 25.3004 36.4817C24.8611 36.921 24.6614 37.4801 24.6614 38.0392C24.6614 38.5983 24.8811 39.1574 25.3004 39.5967C25.7397 40.016 26.2989 40.2357 26.858 40.2357ZM28.4155 25.5991C27.9762 25.1598 27.4171 24.9601 26.858 24.9601C26.2989 24.9601 25.7397 25.1798 25.3004 25.5991C24.8611 26.0384 24.6614 26.5975 24.6614 27.1566C24.6614 27.7157 24.8811 28.2748 25.3004 28.7141C25.7397 29.1534 26.2989 29.3531 26.858 29.3531C27.4171 29.3531 27.9762 29.1334 28.4155 28.7141C28.8547 28.2748 29.0544 27.7157 29.0544 27.1566C29.0544 26.5975 28.8348 26.0384 28.4155 25.5991Z" fill="#ACC811"/>
<path fill-rule="evenodd" clip-rule="evenodd" d="M19.21 21.7253C19.21 21.1662 19.4296 20.6071 19.849 20.1678C20.2883 19.7285 20.8473 19.5288 21.4064 19.5288C21.9655 19.5288 22.5247 19.7485 22.964 20.1678C23.4033 20.6071 23.603 21.1662 23.603 21.7253C23.603 22.2844 23.3833 22.8435 22.964 23.2828C22.5247 23.7221 21.9655 23.9218 21.4064 23.9218C20.8473 23.9218 20.2883 23.7021 19.849 23.2828C19.4296 22.8435 19.21 22.2844 19.21 21.7253Z" fill="white"/>
<path fill-rule="evenodd" clip-rule="evenodd" d="M32.2892 34.8044C32.8483 34.8044 33.4075 34.5847 33.8468 34.1654C34.2861 33.7261 34.4857 33.167 34.4857 32.6079C34.4857 32.0488 34.2661 31.4897 33.8468 31.0504C33.4075 30.6111 32.8483 30.4114 32.2892 30.4114C31.7301 30.4114 31.1711 30.631 30.7318 31.0504C30.2925 31.4897 30.0928 32.0488 30.0928 32.6079C30.0928 33.167 30.3124 33.7261 30.7318 34.1654C31.1711 34.5847 31.7301 34.8044 32.2892 34.8044Z" fill="white"/>
<path fill-rule="evenodd" clip-rule="evenodd" d="M22.9845 31.0504C22.5452 30.6111 21.986 30.4114 21.4269 30.4114C20.8678 30.4114 20.3088 30.631 19.8695 31.0504C19.4302 31.4897 19.2305 32.0488 19.2305 32.6079C19.2305 33.167 19.4501 33.7261 19.8695 34.1654C20.3088 34.6047 20.8678 34.8044 21.4269 34.8044C21.986 34.8044 22.5452 34.5847 22.9845 34.1654C23.4238 33.7261 23.6235 33.167 23.6235 32.6079C23.6235 32.0288 23.4038 31.4697 22.9845 31.0504Z" fill="white"/>
<path fill-rule="evenodd" clip-rule="evenodd" d="M33.8468 20.1678C33.4075 19.7285 32.8483 19.5288 32.2892 19.5288C31.7301 19.5288 31.1711 19.7485 30.7318 20.1678C30.2925 20.6071 30.0928 21.1662 30.0928 21.7253C30.0928 22.2844 30.3124 22.8435 30.7318 23.2828C31.1711 23.7221 31.7301 23.9218 32.2892 23.9218C32.8483 23.9218 33.4075 23.7021 33.8468 23.2828C34.2861 22.8435 34.4857 22.2844 34.4857 21.7253C34.5056 21.1662 34.2861 20.6071 33.8468 20.1678Z" fill="white"/>
</svg>
