<svg width="11" height="12" viewBox="0 0 11 12" fill="none" xmlns="http://www.w3.org/2000/svg">
<path d="M5.7 0.0999756C6.2 0.0999756 6.60001 0.199977 7.00001 0.499977C7.50001 0.799977 7.80001 1.19997 8.00001 1.69997C8.10001 1.99997 8.2 2.39997 8.2 2.69997C8.2 3.49997 7.90001 4.29998 7.40001 4.89998C7.10001 5.19998 6.80001 5.49998 6.40001 5.59998C6.20001 5.69998 5.9 5.69997 5.7 5.69997C5.3 5.69997 4.90001 5.59998 4.60001 5.39998C4.20001 5.09998 3.80001 4.79998 3.50001 4.29998C3.30001 3.89998 3.20001 3.49998 3.10001 3.09998C3.10001 2.69998 3.10001 2.39998 3.10001 1.99998C3.20001 1.49998 3.40001 1.09998 3.80001 0.79998C4.20001 0.39998 4.70001 0.0999756 5.30001 0.0999756C5.40001 0.0999756 5.5 0.0999756 5.7 0.0999756C5.6 0.0999756 5.6 0.0999756 5.7 0.0999756Z" fill="white"/>
<path d="M10.9 10.2C10.7 9.39998 10.4 8.59998 9.8 7.99998C9.5 7.69998 9.1 7.39998 8.8 7.19998C8.3 6.89998 7.7 6.69998 7.2 6.59998C6.6 6.49998 6.1 6.39998 5.5 6.49998C5.1 6.49998 4.8 6.59998 4.4 6.59998C3.8 6.69998 3.3 6.89998 2.7 7.29998C2.2 7.59998 1.7 7.99998 1.3 8.49998C0.900003 8.99998 0.7 9.59998 0.5 10.2C0.5 10.3 0.5 10.3 0.5 10.4V10.5V10.6C0.5 10.9 0.700002 11.1 0.900002 11.2C1 11.2 1.1 11.3 1.2 11.3C4.1 11.3 7.1 11.3 10 11.3H10.1C10.4 11.2 10.6 11.1 10.7 10.8C10.7 10.7 10.8 10.6 10.8 10.5V10.4C10.9 10.3 10.9 10.3 10.9 10.2Z" fill="white"/>
</svg>
