<svg width="393" height="393" viewBox="50 50 293 293" fill="none" xmlns="http://www.w3.org/2000/svg">
<path d="M203.417 314.793C242.312 314.793 273.842 311.063 273.842 306.461C273.842 301.86 242.312 298.13 203.417 298.13C164.522 298.13 132.991 301.86 132.991 306.461C132.991 311.063 164.522 314.793 203.417 314.793Z" fill="#111111"/>
<path d="M263.074 257.965H262.839C260.402 257.808 258.516 255.764 258.673 253.328L264.882 137.629C264.961 135.192 266.926 133.306 269.362 133.306C271.799 133.384 273.685 135.349 273.685 137.786C273.685 137.864 273.685 137.943 273.685 138.022L267.476 253.721C267.319 256.157 265.354 257.965 263.074 257.965Z" fill="#ACC811"/>
<path d="M248.769 228.726L250.027 252.463C250.027 252.463 246.725 272.742 250.027 270.62C253.328 268.498 254.743 258.201 254.743 258.201C254.743 258.201 252.227 274 258.83 276.751C265.432 279.502 273.371 278.244 274.157 269.991C274.943 261.738 273.842 235.486 273.842 235.486L248.769 228.726Z" fill="white"/>
<path d="M265.118 278.716C262.917 278.716 260.716 278.244 258.673 277.379C254.743 275.807 253.799 270.148 253.721 265.354C252.935 267.869 251.756 270.227 250.262 271.17C249.869 271.484 249.319 271.484 248.926 271.249C246.725 269.834 248.69 256.629 249.398 252.542L248.14 228.883C248.14 228.726 248.219 228.49 248.376 228.412C248.533 228.333 248.69 228.254 248.848 228.333L273.921 235.171C274.157 235.25 274.314 235.486 274.314 235.721C274.314 235.957 275.414 262.052 274.628 270.305C274.314 273.528 272.899 276.043 270.541 277.458C268.969 278.244 267.083 278.794 265.118 278.716ZM255.293 258.515C255.057 260.166 253.328 273.921 259.144 276.279C263.153 277.93 267.397 277.93 270.07 276.279C272.192 275.021 273.371 272.899 273.607 269.991C274.314 262.445 273.449 239.337 273.292 235.957L249.398 229.433L250.577 252.385V252.463C249.083 261.424 248.69 269.441 249.634 270.148L249.712 270.07C252.149 268.576 253.721 261.424 254.114 258.358C254.114 258.201 254.192 258.044 254.192 258.044C254.271 257.729 254.507 257.494 254.821 257.572C255.136 257.651 255.371 257.887 255.293 258.201C255.371 258.437 255.293 258.437 255.293 258.515Z" fill="#231F20"/>
<path d="M278.558 237.215L246.725 235.093C244.996 235.014 243.66 233.442 243.817 231.713L244.053 228.647C244.132 226.918 245.704 225.582 247.433 225.739L279.266 227.861C280.995 227.94 282.331 229.512 282.174 231.241L281.938 234.307C281.781 236.036 280.288 237.293 278.558 237.215Z" fill="white"/>
<path d="M277.615 237.686H277.301L247.983 235.721C246.647 235.643 245.468 235.014 244.603 234.071C243.739 233.049 243.267 231.791 243.424 230.455V229.826C243.581 227.075 245.939 225.032 248.69 225.189L278.008 227.154C280.759 227.311 282.803 229.669 282.646 232.42V233.049C282.331 235.721 280.209 237.686 277.615 237.686ZM248.297 226.368C246.254 226.368 244.603 227.94 244.525 229.905V230.534C244.367 232.656 245.939 234.464 248.062 234.621L277.379 236.586C278.401 236.665 279.344 236.35 280.13 235.643C280.916 235.014 281.388 234.071 281.388 233.049V232.42C281.545 230.298 279.973 228.49 277.851 228.333L248.533 226.368H248.297Z" fill="#231F20"/>
<path d="M143.759 257.965C141.401 257.965 139.515 256.157 139.358 253.799L133.148 138.1C132.991 135.664 134.72 133.541 137.157 133.384C139.594 133.227 141.716 134.956 141.873 137.393C141.873 137.471 141.873 137.55 141.873 137.629L148.082 253.328C148.24 255.764 146.353 257.808 143.917 257.965H143.759Z" fill="#ACC811"/>
<path d="M157.986 228.726L156.728 252.463C156.728 252.463 160.03 272.742 156.728 270.62C153.427 268.498 152.012 258.201 152.012 258.201C152.012 258.201 154.528 274 147.925 276.751C141.323 279.502 133.384 278.244 132.677 269.991C131.969 261.738 132.991 235.486 132.991 235.486L157.986 228.726Z" fill="white"/>
<path d="M141.637 278.716C139.672 278.794 137.786 278.244 136.057 277.301C133.699 275.886 132.284 273.371 131.969 270.148C131.262 261.974 132.284 235.879 132.284 235.564C132.284 235.328 132.441 235.093 132.677 235.014L157.75 228.176C157.907 228.097 158.143 228.176 158.222 228.254C158.379 228.333 158.458 228.569 158.458 228.726L157.2 252.385C157.907 256.472 159.794 269.677 157.672 271.091C157.279 271.327 156.728 271.327 156.335 271.013C154.842 270.07 153.742 267.633 152.877 265.196C152.798 269.912 151.855 275.572 147.925 277.222C146.039 278.244 143.917 278.637 141.637 278.716ZM133.463 236.036C133.306 239.416 132.441 262.445 133.148 270.07C133.384 272.978 134.642 275.1 136.685 276.358C139.436 278.008 143.602 278.008 147.611 276.358C153.427 274 151.619 260.166 151.462 258.594C151.462 258.515 151.462 258.515 151.462 258.437C151.384 258.122 151.619 257.808 151.934 257.808C152.248 257.729 152.563 257.965 152.563 258.28C152.563 258.358 152.563 258.437 152.641 258.594C153.113 261.581 154.685 268.733 157.043 270.305C157.121 270.305 157.121 270.384 157.2 270.384C158.143 269.755 157.672 261.659 156.178 252.699V252.62L157.357 229.669L133.463 236.036Z" fill="#231F20"/>
<path d="M127.568 227.861L159.401 225.739C161.13 225.661 162.623 226.918 162.781 228.647L163.016 231.713C163.095 233.442 161.837 234.935 160.108 235.093L128.275 237.215C126.546 237.293 125.053 236.036 124.895 234.307L124.66 231.241C124.581 229.512 125.917 228.019 127.568 227.861Z" fill="white"/>
<path d="M129.218 237.686C126.625 237.686 124.502 235.643 124.267 233.049L124.188 232.42C124.031 229.669 126.074 227.311 128.825 227.154L158.143 225.189C160.894 225.032 163.252 227.075 163.409 229.826L163.488 230.455C163.645 233.206 161.602 235.564 158.851 235.721L129.533 237.686H129.218ZM158.222 226.368L128.904 228.333C127.882 228.412 126.939 228.883 126.31 229.669C125.603 230.455 125.288 231.398 125.367 232.42L125.446 233.049C125.603 235.171 127.411 236.743 129.454 236.665L158.772 234.7C160.894 234.542 162.466 232.735 162.309 230.612L162.23 229.984C162.152 227.861 160.344 226.211 158.222 226.368Z" fill="#231F20"/>
<path d="M187.304 287.44C184.867 287.44 182.902 285.475 182.902 283.039V187.304C182.902 184.867 184.867 182.902 187.304 182.902C189.741 182.902 191.706 184.867 191.706 187.304V283.039C191.706 285.475 189.741 287.44 187.304 287.44Z" fill="#ACC811"/>
<path d="M219.451 287.44C217.015 287.44 215.05 285.475 215.05 283.039V187.304C215.05 184.867 217.015 182.902 219.451 182.902C221.888 182.902 223.853 184.867 223.853 187.304V283.039C223.931 285.475 221.888 287.44 219.451 287.44Z" fill="#ACC811"/>
<path d="M155.709 95.7428C178.008 75.0265 218.856 70.1019 248.394 94.0033C236.187 110.828 230.954 129.777 231.317 150.287C231.681 170.797 237.486 189.648 250.385 206.321C237.101 217.499 221.77 223.437 204.289 223.844C186.904 224.152 171.372 218.761 157.505 208.064C169.808 191.14 175.041 172.191 174.578 151.585C174.211 130.88 168.505 112.125 155.709 95.7428Z" fill="#ACC811"/>
<path d="M256.91 199.757C236.446 175.207 233.957 128.453 255.048 100.236C281.094 125.567 283.659 171.048 256.91 199.757Z" fill="#ACC811"/>
<path d="M150.649 201.641C123.389 173.987 123.477 129.337 149.078 102.016C158.275 113.773 163.106 127.267 164.829 141.794C167.705 166.265 160.869 188.466 150.649 201.641Z" fill="#ACC811"/>
<path d="M203.417 79.2288C243.188 79.3074 275.414 111.612 275.336 151.384C275.257 190.212 244.446 221.966 205.696 223.224C204.91 223.224 204.124 223.224 203.338 223.224C163.567 223.145 131.341 190.841 131.419 151.069C131.498 112.241 162.309 80.4864 201.059 79.2288C201.845 79.3074 202.631 79.2288 203.417 79.2288ZM203.417 78.1284C202.631 78.1284 201.845 78.1284 201.059 78.1284C160.658 79.3074 128.904 113.027 130.083 153.427C131.262 193.042 163.724 224.482 203.338 224.403C204.124 224.403 204.91 224.403 205.696 224.403C246.097 223.224 277.851 189.505 276.672 149.104C275.572 109.49 243.031 78.0498 203.417 78.1284Z" fill="#231F20"/>
<path d="M180.112 147.212C183.279 147.112 185.653 140.945 185.415 133.439C185.176 125.933 182.415 119.93 179.248 120.03C176.081 120.131 173.707 126.298 173.945 133.804C174.184 141.31 176.945 147.313 180.112 147.212Z" fill="black"/>
<path d="M227.508 145.719C230.675 145.618 233.05 139.452 232.811 131.946C232.573 124.439 229.812 118.436 226.644 118.537C223.477 118.637 221.103 124.804 221.341 132.31C221.58 139.816 224.341 145.819 227.508 145.719Z" fill="black"/>
<path d="M201.688 263.467C201.688 263.467 170.641 257.415 170.405 260.402C170.169 263.389 171.427 288.226 171.427 288.226C171.427 288.226 141.716 304.182 146.275 306.226C150.834 308.269 201.688 298.837 201.688 298.837V263.467Z" fill="white"/>
<path d="M148.869 307.012C147.925 307.09 146.982 306.933 146.039 306.697C145.567 306.54 145.253 306.068 145.253 305.597C145.253 304.889 145.174 303.082 158.301 295.064C163.881 291.685 169.462 288.619 170.877 287.833C170.719 284.689 169.619 263.153 169.855 260.323C169.855 260.009 170.012 259.694 170.326 259.537C173.156 257.336 197.129 261.895 201.845 262.838C202.081 262.917 202.317 263.153 202.317 263.389V298.759C202.317 298.994 202.159 299.23 201.845 299.309C197.129 300.252 160.03 307.012 148.869 307.012ZM173.47 260.087C172.056 260.087 171.112 260.245 170.877 260.48C170.641 263.389 171.898 287.912 171.898 288.148C171.898 288.383 171.82 288.541 171.584 288.698C159.087 295.379 146.196 303.553 146.275 305.597C146.275 305.597 146.353 305.675 146.432 305.675C149.969 307.247 186.597 301.038 201.059 298.366V263.939C190.134 261.817 178.579 260.087 173.47 260.087Z" fill="#231F20"/>
<path d="M205.067 263.467C205.067 263.467 236.114 257.415 236.35 260.402C236.586 263.389 235.328 288.226 235.328 288.226C235.328 288.226 265.039 304.182 260.48 306.226C255.922 308.269 205.067 298.837 205.067 298.837V263.467Z" fill="white"/>
<path d="M257.965 307.012C246.804 307.012 209.626 300.252 204.989 299.387C204.753 299.309 204.517 299.073 204.517 298.837V263.467C204.517 263.231 204.675 262.996 204.989 262.917C209.784 261.974 233.678 257.415 236.508 259.616C236.743 259.773 236.901 260.087 236.979 260.402C237.215 263.231 236.193 284.768 235.957 287.912C240.988 290.584 261.66 302.06 261.581 305.675C261.581 306.147 261.267 306.619 260.795 306.776C259.852 307.012 258.909 307.09 257.965 307.012ZM205.618 298.366C220.08 301.038 256.708 307.247 260.245 305.675C260.323 305.675 260.402 305.597 260.402 305.597C260.481 303.632 247.59 295.457 235.093 288.698C234.936 288.619 234.778 288.383 234.778 288.148C234.778 287.912 236.036 263.389 235.8 260.402C234.7 259.144 219.687 261.109 205.618 263.86V298.366Z" fill="#231F20"/>
<path d="M248.376 177.715H158.379C157.436 177.715 156.729 177.007 156.729 176.064C156.729 175.121 157.436 174.413 158.379 174.413H248.376C249.319 174.413 250.027 175.121 250.027 176.064C250.027 177.007 249.319 177.715 248.376 177.715Z" fill="black"/>
<path d="M60.129 197.758C65.2948 197.758 69.4824 193.57 69.4824 188.404C69.4824 183.238 65.2948 179.051 60.129 179.051C54.9633 179.051 50.7756 183.238 50.7756 188.404C50.7756 193.57 54.9633 197.758 60.129 197.758Z" fill="#101010"/>
<path d="M101.001 197.758C106.167 197.758 110.354 193.57 110.354 188.404C110.354 183.238 106.167 179.051 101.001 179.051C95.8354 179.051 91.6477 183.238 91.6477 188.404C91.6477 193.57 95.8354 197.758 101.001 197.758Z" fill="#101010"/>
<path d="M291.999 197.758C297.165 197.758 301.352 193.57 301.352 188.404C301.352 183.238 297.165 179.051 291.999 179.051C286.833 179.051 282.646 183.238 282.646 188.404C282.646 193.57 286.833 197.758 291.999 197.758Z" fill="#101010"/>
<path d="M332.871 197.758C338.037 197.758 342.224 193.57 342.224 188.404C342.224 183.238 338.037 179.051 332.871 179.051C327.705 179.051 323.518 183.238 323.518 188.404C323.518 193.57 327.705 197.758 332.871 197.758Z" fill="#101010"/>
</svg>