<svg width="120" height="120" viewBox="0 0 120 120" fill="none" xmlns="http://www.w3.org/2000/svg">
<g filter="url(#filter0_d_599_521)">
<path d="M60.0488 93.243C78.5504 93.243 93.5488 78.2445 93.5488 59.743C93.5488 41.2414 78.5504 26.2429 60.0488 26.2429C41.5473 26.2429 26.5488 41.2414 26.5488 59.743C26.5488 78.2445 41.5473 93.243 60.0488 93.243Z" fill="white"/>
</g>
<path fill-rule="evenodd" clip-rule="evenodd" d="M49.2602 39.5889C53.2239 39.5889 56.4387 42.8037 56.4387 46.7674C56.4387 50.7312 53.2239 53.946 49.2602 53.946C47.6528 53.946 46.1732 53.4163 44.9859 52.5395V58.5308C44.9859 59.3345 44.3283 59.9738 43.5429 59.9738C42.7392 59.9738 42.0999 59.3162 42.0999 58.5308V47.3154H43.1227C43.5429 47.2971 44.6754 48.0095 45.0224 48.2653C46.3376 49.2151 47.8537 50.6398 49.8812 50.6398C51.5069 50.6398 52.8038 49.9092 53.3153 48.247C53.4431 47.8086 53.5344 47.3154 53.5344 46.7674C53.5344 46.2012 53.4431 45.708 53.3153 45.2879C52.8038 43.6257 51.4886 42.895 49.8812 42.895C47.8172 42.895 46.2645 44.3746 44.9494 45.3244C44.6206 45.5618 43.5246 46.2377 43.1227 46.2195H42.1181C42.3921 42.5114 45.4791 39.5889 49.2602 39.5889Z" fill="#181818"/>
<path fill-rule="evenodd" clip-rule="evenodd" d="M63.1427 51.0417C61.7179 51.0417 60.5489 49.8727 60.5489 48.4479V41.3059V40.904V38.4746V35.0041C60.5489 34.2004 59.8913 33.561 59.1058 33.561C58.3021 33.561 57.6628 34.2186 57.6628 35.0041V38.4746V46.4387V48.4662C57.6628 51.4618 60.1287 53.9278 63.1244 53.9278H63.7271C64.3847 53.7999 64.8962 53.1971 64.8962 52.503C64.8962 51.6993 64.2386 51.06 63.4532 51.06H63.1427V51.0417Z" fill="#181818"/>
<path d="M78.4129 49.8908C78.4129 50.3292 78.285 50.7859 78.0293 51.279C77.7736 51.7722 77.3717 52.2471 76.842 52.6855C76.3123 53.1239 75.6364 53.4893 74.8327 53.7633C74.029 54.0373 73.1157 54.1651 72.1111 54.1651C69.974 54.1651 68.2935 53.544 67.0879 52.2837C65.8824 51.0416 65.2795 49.3611 65.2795 47.2605C65.2795 45.8357 65.5536 44.5754 66.1015 43.4794C66.6495 42.3835 67.4532 41.5432 68.4944 40.9404C69.5356 40.3376 70.7776 40.0454 72.2389 40.0454C73.134 40.0454 73.9559 40.1733 74.7048 40.4473C75.4538 40.703 76.0931 41.05 76.6045 41.4702C77.1343 41.8903 77.5178 42.3287 77.7918 42.8036C78.0658 43.2785 78.212 43.7169 78.212 44.1187C78.212 44.5388 78.0658 44.8859 77.7553 45.1782C77.4448 45.4704 77.0795 45.6165 76.6228 45.6165C76.3306 45.6165 76.0931 45.5435 75.9104 45.3974C75.7278 45.2512 75.5086 45.0138 75.2711 44.685C74.851 44.0457 74.4126 43.5525 73.9377 43.242C73.4811 42.9132 72.8965 42.767 72.1841 42.767C71.1612 42.767 70.3393 43.1689 69.7 43.9726C69.0789 44.7763 68.7501 45.8723 68.7501 47.2605C68.7501 47.9181 68.8232 48.5209 68.9876 49.0689C69.1519 49.6168 69.3894 50.0735 69.6817 50.4753C69.9922 50.8589 70.3575 51.1512 70.7959 51.3521C71.2343 51.5531 71.7092 51.6444 72.2207 51.6444C72.9148 51.6444 73.5175 51.48 74.0107 51.1695C74.5039 50.8407 74.9423 50.3475 75.3259 49.6899C75.5451 49.3063 75.7643 48.9958 76.02 48.7766C76.2575 48.5574 76.568 48.4478 76.915 48.4478C77.3351 48.4478 77.6822 48.6122 77.9745 48.9227C78.2668 49.1784 78.4129 49.5255 78.4129 49.8908Z" fill="#181818"/>
<defs>
<filter id="filter0_d_599_521" x="0.548828" y="0.24292" width="119" height="119" filterUnits="userSpaceOnUse" color-interpolation-filters="sRGB">
<feFlood flood-opacity="0" result="BackgroundImageFix"/>
<feColorMatrix in="SourceAlpha" type="matrix" values="0 0 0 0 0 0 0 0 0 0 0 0 0 0 0 0 0 0 127 0" result="hardAlpha"/>
<feOffset/>
<feGaussianBlur stdDeviation="13"/>
<feComposite in2="hardAlpha" operator="out"/>
<feColorMatrix type="matrix" values="0 0 0 0 1 0 0 0 0 1 0 0 0 0 1 0 0 0 1 0"/>
<feBlend mode="normal" in2="BackgroundImageFix" result="effect1_dropShadow_599_521"/>
<feBlend mode="normal" in="SourceGraphic" in2="effect1_dropShadow_599_521" result="shape"/>
</filter>
</defs>
</svg>
