<svg width="40" height="40" viewBox="12 5 47 30" fill="none" xmlns="http://www.w3.org/2000/svg">
<path d="M26.4432 33.7801C26.0227 33.7801 25.66 33.6873 25.3551 33.5017C25.0521 33.3142 24.8182 33.0528 24.6534 32.7176C24.4905 32.3805 24.4091 31.9885 24.4091 31.5415C24.4091 31.0945 24.4905 30.7006 24.6534 30.3597C24.8182 30.0169 25.0473 29.7498 25.3409 29.5585C25.6364 29.3653 25.9811 29.2688 26.375 29.2688C26.6023 29.2688 26.8267 29.3066 27.0483 29.3824C27.2699 29.4581 27.4716 29.5813 27.6534 29.7517C27.8352 29.9203 27.9801 30.1438 28.0881 30.4222C28.196 30.7006 28.25 31.0434 28.25 31.4506V31.7347H24.8864V31.1551H27.5682C27.5682 30.9089 27.5189 30.6892 27.4205 30.496C27.3239 30.3028 27.1856 30.1504 27.0057 30.0386C26.8277 29.9269 26.6174 29.871 26.375 29.871C26.108 29.871 25.8769 29.9373 25.6818 30.0699C25.4886 30.2006 25.34 30.371 25.2358 30.5813C25.1316 30.7915 25.0795 31.0169 25.0795 31.2574V31.6438C25.0795 31.9733 25.1364 32.2527 25.25 32.4818C25.3655 32.7091 25.5256 32.8824 25.7301 33.0017C25.9347 33.1191 26.1723 33.1778 26.4432 33.1778C26.6193 33.1778 26.7784 33.1532 26.9205 33.104C27.0644 33.0528 27.1884 32.9771 27.2926 32.8767C27.3968 32.7744 27.4773 32.6475 27.5341 32.496L28.1818 32.6778C28.1136 32.8975 27.9991 33.0907 27.8381 33.2574C27.6771 33.4222 27.4782 33.551 27.2415 33.6438C27.0047 33.7347 26.7386 33.7801 26.4432 33.7801ZM29.9403 31.0642V33.6892H29.2699V29.3256H29.9176V30.0074H29.9744C30.0767 29.7858 30.232 29.6078 30.4403 29.4733C30.6487 29.3369 30.9176 29.2688 31.2472 29.2688C31.5426 29.2688 31.8011 29.3294 32.0227 29.4506C32.2443 29.5699 32.4167 29.7517 32.5398 29.996C32.6629 30.2385 32.7244 30.5453 32.7244 30.9165V33.6892H32.054V30.9619C32.054 30.6191 31.965 30.3521 31.7869 30.1608C31.6089 29.9676 31.3646 29.871 31.054 29.871C30.84 29.871 30.6487 29.9174 30.4801 30.0102C30.3134 30.103 30.1818 30.2385 30.0852 30.4165C29.9886 30.5945 29.9403 30.8104 29.9403 31.0642ZM36.1996 29.3256H36.87V34.0074C36.87 34.2763 36.8236 34.5093 36.7308 34.7063C36.6399 34.9032 36.5017 35.0557 36.3161 35.1636C36.1323 35.2716 35.9003 35.3256 35.62 35.3256C35.5973 35.3256 35.5746 35.3256 35.5518 35.3256C35.5291 35.3256 35.5064 35.3256 35.4837 35.3256V34.7006C35.5064 34.7006 35.5272 34.7006 35.5462 34.7006C35.5651 34.7006 35.5859 34.7006 35.6087 34.7006C35.8132 34.7006 35.9628 34.64 36.0575 34.5188C36.1522 34.3994 36.1996 34.229 36.1996 34.0074V29.3256ZM36.5291 28.5983C36.3984 28.5983 36.2857 28.5538 36.1911 28.4648C36.0982 28.3758 36.0518 28.2688 36.0518 28.1438C36.0518 28.0188 36.0982 27.9117 36.1911 27.8227C36.2857 27.7337 36.3984 27.6892 36.5291 27.6892C36.6598 27.6892 36.7715 27.7337 36.8643 27.8227C36.959 27.9117 37.0064 28.0188 37.0064 28.1438C37.0064 28.2688 36.959 28.3758 36.8643 28.4648C36.7715 28.5538 36.6598 28.5983 36.5291 28.5983ZM40.848 31.9051V29.3256H41.5185V33.6892H40.848V32.9506H40.8026C40.7003 33.1722 40.5412 33.3606 40.3253 33.5159C40.1094 33.6693 39.8366 33.746 39.5071 33.746C39.2344 33.746 38.992 33.6864 38.7798 33.567C38.5677 33.4458 38.401 33.264 38.2798 33.0216C38.1586 32.7773 38.098 32.4695 38.098 32.0983V29.3256H38.7685V32.0528C38.7685 32.371 38.8575 32.6248 39.0355 32.8142C39.2154 33.0036 39.4446 33.0983 39.723 33.0983C39.8897 33.0983 40.0592 33.0557 40.2315 32.9705C40.4058 32.8852 40.5516 32.7545 40.669 32.5784C40.7884 32.4023 40.848 32.1778 40.848 31.9051ZM44.576 33.7801C44.1555 33.7801 43.7929 33.6873 43.4879 33.5017C43.1849 33.3142 42.951 33.0528 42.7862 32.7176C42.6233 32.3805 42.5419 31.9885 42.5419 31.5415C42.5419 31.0945 42.6233 30.7006 42.7862 30.3597C42.951 30.0169 43.1802 29.7498 43.4737 29.5585C43.7692 29.3653 44.1139 29.2688 44.5078 29.2688C44.7351 29.2688 44.9595 29.3066 45.1811 29.3824C45.4027 29.4581 45.6044 29.5813 45.7862 29.7517C45.968 29.9203 46.1129 30.1438 46.2209 30.4222C46.3288 30.7006 46.3828 31.0434 46.3828 31.4506V31.7347H43.0192V31.1551H45.701C45.701 30.9089 45.6518 30.6892 45.5533 30.496C45.4567 30.3028 45.3184 30.1504 45.1385 30.0386C44.9605 29.9269 44.7502 29.871 44.5078 29.871C44.2408 29.871 44.0097 29.9373 43.8146 30.0699C43.6214 30.2006 43.4728 30.371 43.3686 30.5813C43.2644 30.7915 43.2124 31.0169 43.2124 31.2574V31.6438C43.2124 31.9733 43.2692 32.2527 43.3828 32.4818C43.4983 32.7091 43.6584 32.8824 43.8629 33.0017C44.0675 33.1191 44.3052 33.1778 44.576 33.1778C44.7521 33.1778 44.9112 33.1532 45.0533 33.104C45.1972 33.0528 45.3213 32.9771 45.4254 32.8767C45.5296 32.7744 45.6101 32.6475 45.6669 32.496L46.3146 32.6778C46.2464 32.8975 46.1319 33.0907 45.9709 33.2574C45.8099 33.4222 45.611 33.551 45.3743 33.6438C45.1375 33.7347 44.8714 33.7801 44.576 33.7801ZM49.1641 35.4165C48.8402 35.4165 48.5618 35.3748 48.3288 35.2915C48.0959 35.21 47.9018 35.1021 47.7464 34.9676C47.593 34.835 47.4709 34.693 47.38 34.5415L47.9141 34.1665C47.9747 34.246 48.0514 34.3369 48.1442 34.4392C48.237 34.5434 48.3639 34.6333 48.5249 34.7091C48.6877 34.7867 48.9008 34.8256 49.1641 34.8256C49.5163 34.8256 49.8071 34.7403 50.0362 34.5699C50.2654 34.3994 50.38 34.1324 50.38 33.7688V32.8824H50.3232C50.2739 32.9619 50.2038 33.0604 50.1129 33.1778C50.0239 33.2934 49.8951 33.3966 49.7266 33.4875C49.5599 33.5765 49.3345 33.621 49.0504 33.621C48.6982 33.621 48.3819 33.5377 48.1016 33.371C47.8232 33.2044 47.6025 32.9619 47.4396 32.6438C47.2786 32.3256 47.1982 31.9392 47.1982 31.4847C47.1982 31.0377 47.2768 30.6485 47.4339 30.317C47.5911 29.9837 47.8099 29.7261 48.0902 29.5443C48.3705 29.3606 48.6944 29.2688 49.0618 29.2688C49.3459 29.2688 49.5713 29.3161 49.7379 29.4108C49.9065 29.5036 50.0353 29.6097 50.1243 29.729C50.2152 29.8464 50.2853 29.943 50.3345 30.0188H50.4027V29.3256H51.0504V33.8142C51.0504 34.1892 50.9652 34.4941 50.7947 34.729C50.6262 34.9657 50.3989 35.139 50.1129 35.2489C49.8288 35.3606 49.5125 35.4165 49.1641 35.4165ZM49.1413 33.0188C49.4103 33.0188 49.6375 32.9572 49.8232 32.8341C50.0088 32.711 50.1499 32.5339 50.2464 32.3028C50.343 32.0718 50.3913 31.7953 50.3913 31.4733C50.3913 31.1589 50.344 30.8814 50.2493 30.6409C50.1546 30.4004 50.0144 30.2119 49.8288 30.0756C49.6432 29.9392 49.4141 29.871 49.1413 29.871C48.8572 29.871 48.6205 29.943 48.4311 30.0869C48.2436 30.2309 48.1025 30.4241 48.0078 30.6665C47.915 30.9089 47.8686 31.1778 47.8686 31.4733C47.8686 31.7763 47.916 32.0443 48.0107 32.2773C48.1072 32.5083 48.2493 32.6902 48.4368 32.8227C48.6262 32.9534 48.861 33.0188 49.1413 33.0188ZM54.0504 33.7801C53.6565 33.7801 53.3108 33.6864 53.0135 33.4989C52.718 33.3114 52.487 33.0491 52.3203 32.7119C52.1555 32.3748 52.0732 31.9809 52.0732 31.5301C52.0732 31.0756 52.1555 30.6788 52.3203 30.3398C52.487 30.0008 52.718 29.7375 53.0135 29.55C53.3108 29.3625 53.6565 29.2688 54.0504 29.2688C54.4444 29.2688 54.7891 29.3625 55.0845 29.55C55.3819 29.7375 55.6129 30.0008 55.7777 30.3398C55.9444 30.6788 56.0277 31.0756 56.0277 31.5301C56.0277 31.9809 55.9444 32.3748 55.7777 32.7119C55.6129 33.0491 55.3819 33.3114 55.0845 33.4989C54.7891 33.6864 54.4444 33.7801 54.0504 33.7801ZM54.0504 33.1778C54.3497 33.1778 54.5959 33.1011 54.7891 32.9477C54.9822 32.7943 55.1252 32.5926 55.218 32.3426C55.3108 32.0926 55.3572 31.8218 55.3572 31.5301C55.3572 31.2385 55.3108 30.9667 55.218 30.7148C55.1252 30.4629 54.9822 30.2593 54.7891 30.104C54.5959 29.9487 54.3497 29.871 54.0504 29.871C53.7512 29.871 53.505 29.9487 53.3118 30.104C53.1186 30.2593 52.9756 30.4629 52.8828 30.7148C52.79 30.9667 52.7436 31.2385 52.7436 31.5301C52.7436 31.8218 52.79 32.0926 52.8828 32.3426C52.9756 32.5926 53.1186 32.7943 53.3118 32.9477C53.505 33.1011 53.7512 33.1778 54.0504 33.1778Z" fill="#181818"/>
<path fill-rule="evenodd" clip-rule="evenodd" d="M24.1603 9.71704C28.1241 9.71704 31.3389 12.9319 31.3389 16.8956C31.3389 20.8593 28.1241 24.0742 24.1603 24.0742C22.5529 24.0742 21.0734 23.5445 19.8861 22.6677V28.659C19.8861 29.4627 19.2285 30.102 18.443 30.102C17.6393 30.102 17 29.4444 17 28.659V17.4436H18.0229C18.443 17.4253 19.5755 18.1377 19.9226 18.3934C21.2377 19.3433 22.7538 20.768 24.7814 20.768C26.4071 20.768 27.704 20.0374 28.2154 18.3751C28.3433 17.9368 28.4346 17.4436 28.4346 16.8956C28.4346 16.3294 28.3433 15.8362 28.2154 15.4161C27.704 13.7538 26.3888 13.0232 24.7814 13.0232C22.7173 13.0232 21.1647 14.5027 19.8495 15.4526C19.5207 15.69 18.4248 16.3659 18.0229 16.3476H17.0183C17.2923 12.6396 20.3793 9.71704 24.1603 9.71704Z" fill="#181818"/>
<path fill-rule="evenodd" clip-rule="evenodd" d="M38.0433 21.1699C36.6185 21.1699 35.4495 20.0009 35.4495 18.5761V11.4341V11.0322V8.60279V5.13225C35.4495 4.32854 34.7919 3.68921 34.0065 3.68921C33.2027 3.68921 32.5635 4.3468 32.5635 5.13225V8.60279V16.5668V18.5943C32.5635 21.59 35.0294 24.0559 38.025 24.0559H38.6278C39.2854 23.9281 39.7968 23.3253 39.7968 22.6312C39.7968 21.8275 39.1392 21.1882 38.3538 21.1882H38.0433V21.1699Z" fill="#181818"/>
<path d="M53.313 20.0191C53.313 20.4575 53.1852 20.9142 52.9294 21.4073C52.6737 21.9005 52.2719 22.3754 51.7422 22.8138C51.2124 23.2522 50.5366 23.6176 49.7329 23.8916C48.9292 24.1655 48.0159 24.2934 47.0112 24.2934C44.8741 24.2934 43.1936 23.6723 41.9881 22.412C40.7825 21.1699 40.1797 19.4894 40.1797 17.3888C40.1797 15.964 40.4537 14.7037 41.0017 13.6077C41.5497 12.5118 42.3534 11.6715 43.3945 11.0687C44.4357 10.4659 45.6778 10.1737 47.1391 10.1737C48.0341 10.1737 48.8561 10.3016 49.605 10.5756C50.3539 10.8313 50.9932 11.1783 51.5047 11.5985C52.0344 12.0186 52.418 12.457 52.692 12.9319C52.966 13.4068 53.1121 13.8452 53.1121 14.247C53.1121 14.6671 52.966 15.0142 52.6555 15.3065C52.3449 15.5987 51.9796 15.7448 51.523 15.7448C51.2307 15.7448 50.9932 15.6718 50.8106 15.5257C50.6279 15.3795 50.4087 15.1421 50.1712 14.8133C49.7511 14.174 49.3128 13.6808 48.8379 13.3703C48.3812 13.0415 47.7966 12.8953 47.0843 12.8953C46.0614 12.8953 45.2394 13.2972 44.6001 14.1009C43.9791 14.9046 43.6502 16.0006 43.6502 17.3888C43.6502 18.0464 43.7233 18.6492 43.8877 19.1972C44.0521 19.7451 44.2896 20.2018 44.5818 20.6036C44.8923 20.9872 45.2577 21.2795 45.6961 21.4804C46.1345 21.6813 46.6094 21.7727 47.1208 21.7727C47.8149 21.7727 48.4177 21.6083 48.9109 21.2977C49.4041 20.969 49.8424 20.4758 50.226 19.8182C50.4452 19.4346 50.6644 19.1241 50.9202 18.9049C51.1576 18.6857 51.4681 18.5761 51.8152 18.5761C52.2353 18.5761 52.5824 18.7405 52.8746 19.051C53.1669 19.3067 53.313 19.6538 53.313 20.0191Z" fill="#181818"/>
</svg>
