<svg width="7" height="7" viewBox="0 0 7 7" fill="none" xmlns="http://www.w3.org/2000/svg">
<path fill-rule="evenodd" clip-rule="evenodd" d="M0.699997 1.09996C1.1 0.69996 1.7 0.399963 2.3 0.399963C2.9 0.399963 3.49999 0.59996 3.89999 1.09996C4.29999 1.49996 4.60001 2.09996 4.60001 2.69996C4.60001 3.29996 4.39999 3.89996 3.89999 4.29996C3.39999 4.69997 2.9 4.99996 2.3 4.99996C1.7 4.99996 1.1 4.79996 0.699997 4.29996C0.299997 3.89996 0 3.29996 0 2.69996C0 2.09996 0.199997 1.49996 0.699997 1.09996ZM2.2 0.899963C1.7 0.899963 1.3 1.09996 1 1.39996C0.7 1.69996 0.5 2.19996 0.5 2.59996C0.5 3.09996 0.7 3.49996 1 3.79996C1.3 4.09996 1.8 4.29996 2.2 4.29996C2.7 4.29996 3.09999 4.09996 3.39999 3.79996C3.69999 3.49996 3.89999 2.99996 3.89999 2.59996C3.89999 2.09996 3.69999 1.69996 3.39999 1.39996C3.09999 1.09996 2.7 0.899963 2.2 0.899963Z" fill="white"/>
<path d="M3.89998 4.39996C4.09998 4.19996 4.19999 4.19995 4.29999 4.19995C4.39999 4.19995 4.49999 4.19996 4.59999 4.29996L6.19998 5.89996C6.29998 5.99996 6.29999 6.09995 6.29999 6.19995C6.29999 6.29995 6.29998 6.39995 6.19998 6.49995L6.09999 6.59995C5.99999 6.69995 5.89999 6.69995 5.79999 6.69995C5.69999 6.69995 5.59998 6.69995 5.49998 6.59995L3.89998 4.99995C3.79998 4.89995 3.79999 4.79995 3.79999 4.69995C3.79999 4.69995 3.89998 4.49996 3.89998 4.39996Z" fill="white"/>
<path fill-rule="evenodd" clip-rule="evenodd" d="M3.80002 3.89995L4.20002 4.29995C4.30002 4.39995 4.30002 4.59995 4.20002 4.69995C4.10002 4.79995 3.90002 4.79995 3.80002 4.69995L3.40001 4.29995C3.30001 4.19995 3.30001 3.99995 3.40001 3.89995C3.60001 3.79995 3.80002 3.79995 3.80002 3.89995Z" fill="white"/>
</svg>
