<svg width="37" height="28" viewBox="0 0 37 28" fill="none" xmlns="http://www.w3.org/2000/svg">
<path fill-rule="evenodd" clip-rule="evenodd" d="M7.62224 6.77808C11.586 6.77808 14.8008 9.99289 14.8008 13.9566C14.8008 17.9204 11.586 21.1352 7.62224 21.1352C6.01483 21.1352 4.53528 20.6055 3.34799 19.7287V25.72C3.34799 26.5237 2.69039 27.163 1.90495 27.163C1.10124 27.163 0.461914 26.5054 0.461914 25.72V14.5046H1.48481C1.90493 14.4863 3.03744 15.1987 3.3845 15.4545C4.69966 16.4043 6.21575 17.829 8.24328 17.829C9.86897 17.829 11.1659 17.0984 11.6773 15.4362C11.8052 14.9978 11.8965 14.5046 11.8965 13.9566C11.8965 13.3904 11.8052 12.8972 11.6773 12.4771C11.1659 10.8149 9.8507 10.0842 8.24328 10.0842C6.17922 10.0842 4.62658 11.5638 3.31142 12.5136C2.98263 12.7511 1.88666 13.4269 1.48481 13.4087H0.480198C0.754189 9.70066 3.84116 6.77808 7.62224 6.77808Z" fill="white"/>
<path fill-rule="evenodd" clip-rule="evenodd" d="M21.5052 18.2309C20.0805 18.2309 18.9114 17.0619 18.9114 15.6371V8.4951V8.09325V5.66383V2.19328C18.9114 1.38957 18.2538 0.750244 17.4684 0.750244C16.6647 0.750244 16.0254 1.40784 16.0254 2.19328V5.66383V13.6279V15.6554C16.0254 18.651 18.4913 21.117 21.4869 21.117H22.0897C22.7473 20.9891 23.2587 20.3863 23.2587 19.6922C23.2587 18.8885 22.6012 18.2492 21.8157 18.2492H21.5052V18.2309Z" fill="white"/>
<path d="M36.7749 17.0801C36.7749 17.5185 36.6471 17.9752 36.3913 18.4684C36.1356 18.9616 35.7338 19.4365 35.2041 19.8748C34.6743 20.3132 33.9985 20.6786 33.1948 20.9526C32.3911 21.2266 31.4778 21.3544 30.4732 21.3544C28.336 21.3544 26.6555 20.7333 25.45 19.473C24.2444 18.2309 23.6416 16.5504 23.6416 14.4498C23.6416 13.0251 23.9156 11.7647 24.4636 10.6688C25.0116 9.57281 25.8153 8.73254 26.8565 8.12976C27.8976 7.52698 29.1397 7.23474 30.601 7.23474C31.496 7.23474 32.318 7.36261 33.0669 7.6366C33.8158 7.89232 34.4551 8.23937 34.9666 8.65949C35.4963 9.07961 35.8799 9.51802 36.1539 9.99294C36.4279 10.4679 36.574 10.9062 36.574 11.308C36.574 11.7282 36.4279 12.0753 36.1174 12.3675C35.8068 12.6598 35.4415 12.8059 34.9849 12.8059C34.6926 12.8059 34.4551 12.7328 34.2725 12.5867C34.0898 12.4406 33.8706 12.2031 33.6332 11.8743C33.213 11.235 32.7747 10.7418 32.2998 10.4313C31.8431 10.1025 31.2586 9.95637 30.5462 9.95637C29.5233 9.95637 28.7013 10.3582 28.062 11.1619C27.441 11.9656 27.1121 13.0616 27.1121 14.4498C27.1121 15.1074 27.1852 15.7102 27.3496 16.2582C27.514 16.8062 27.7515 17.2628 28.0437 17.6647C28.3543 18.0482 28.7196 18.3405 29.158 18.5415C29.5964 18.7424 30.0713 18.8337 30.5827 18.8337C31.2769 18.8337 31.8796 18.6693 32.3728 18.3588C32.866 18.03 33.3044 17.5368 33.6879 16.8792C33.9071 16.4956 34.1263 16.1851 34.3821 15.9659C34.6195 15.7467 34.93 15.6372 35.2771 15.6372C35.6972 15.6372 36.0443 15.8015 36.3366 16.112C36.6288 16.3678 36.7749 16.7148 36.7749 17.0801Z" fill="white"/>
</svg>
