<svg width="16" height="17" viewBox="0 0 16 17" fill="none" xmlns="http://www.w3.org/2000/svg">
<path d="M16 14.9C16 15.7 12.6 16.3 8.39999 16.3C4.19999 16.3 0.800003 15.7 0.800003 14.9C0.800003 14.1 4.19999 13.5 8.39999 13.5C12.6 13.4 16 14.1 16 14.9Z" fill="url(#paint0_radial_1_1134)"/>
<path d="M8.89999 14.7C8.89999 14.8 8.69999 14.9 8.39999 14.9C8.09999 14.9 7.89999 14.8 7.89999 14.7V3.10001C7.89999 3.00001 8.09999 2.89999 8.39999 2.89999C8.69999 2.89999 8.89999 3.00001 8.89999 3.10001V14.7Z" fill="url(#paint1_linear_1_1134)"/>
<path d="M8.39999 8.89999C10.6644 8.89999 12.5 7.06436 12.5 4.79999C12.5 2.53562 10.6644 0.700012 8.39999 0.700012C6.13563 0.700012 4.3 2.53562 4.3 4.79999C4.3 7.06436 6.13563 8.89999 8.39999 8.89999Z" fill="#ACC816"/>
<defs>
<radialGradient id="paint0_radial_1_1134" cx="0" cy="0" r="1" gradientUnits="userSpaceOnUse" gradientTransform="translate(8.40928 14.8556) scale(7.59044 1.44471)">
<stop stop-color="#231F20"/>
<stop offset="0.0896271" stop-color="#231F20" stop-opacity="0.9104"/>
<stop offset="1" stop-color="#231F20" stop-opacity="0"/>
</radialGradient>
<linearGradient id="paint1_linear_1_1134" x1="7.92779" y1="8.87829" x2="8.89071" y2="8.87829" gradientUnits="userSpaceOnUse">
<stop stop-color="#595A5C"/>
<stop offset="0.3394" stop-color="white"/>
<stop offset="0.6424" stop-color="#BDBEC0"/>
<stop offset="1" stop-color="#595A5C"/>
</linearGradient>
</defs>
</svg>
